<svg width="218" height="45" viewBox="0 0 218 45" fill="none" xmlns="http://www.w3.org/2000/svg">
<path d="M27.4199 16.3C26.2652 23.2149 23.0114 29.6073 18.0999 34.61C19.7086 35.5614 21.5516 36.0429 23.4199 36H25.2499L24.0499 44.07H21.7599C17.7897 44.1511 13.9101 42.8779 10.7599 40.46C8.31068 41.9588 5.69674 43.1701 2.96994 44.07L0.689941 37.37C2.55881 36.6883 4.35449 35.8206 6.04994 34.78C3.81994 30.37 2.95994 24.65 3.87994 18.19C5.30994 8 10.8799 2.19 18.0699 2.19C24.9099 2.22 28.6799 7.43 27.4199 16.3ZM16.7799 10.3C14.8399 10.3 13.2899 12.59 12.5499 17.57C11.9409 21.1851 12.2154 24.8939 13.3499 28.38C16.2689 24.9468 18.1704 20.7663 18.8399 16.31C19.3599 12.41 18.6099 10.29 16.7799 10.29V10.3Z" fill="#DEDFDE"/>
<path d="M33.1499 14.92H41.4999L37.3799 44.11H29.0499L33.1499 14.92ZM33.3699 6.05999C33.5844 4.64634 34.2966 3.35575 35.3783 2.4207C36.46 1.48566 37.8401 0.967653 39.2699 0.959996C39.9225 0.922126 40.575 1.03386 41.1778 1.28667C41.7805 1.53948 42.3175 1.92668 42.7478 2.41871C43.1781 2.91073 43.4903 3.49456 43.6605 4.12564C43.8307 4.75671 43.8544 5.41834 43.7299 6.05999C43.5266 7.48107 42.8205 8.78216 41.7398 9.72709C40.6591 10.672 39.2754 11.1981 37.8399 11.21C37.1831 11.2453 36.5269 11.1301 35.9213 10.8733C35.3158 10.6164 34.7769 10.2247 34.3457 9.72793C33.9146 9.23117 33.6025 8.64253 33.4334 8.00687C33.2643 7.37121 33.2426 6.70532 33.3699 6.05999Z" fill="#DEDFDE"/>
<path d="M94.3699 36L93.1699 44.07H90.8199C84.9299 44.07 82.3499 41.15 83.0999 35.48L84.2399 27.48C84.6999 24.33 82.9799 22.22 79.9499 22.22C78.567 22.1612 77.2056 22.5776 76.0922 23.3999C74.9788 24.2222 74.1804 25.4009 73.8299 26.74L71.3699 44.02H63.0499L65.3999 27.48C65.8599 24.33 64.1399 22.22 61.1099 22.22C59.7092 22.1844 58.3374 22.622 57.2161 23.4621C56.0947 24.3022 55.2893 25.4957 54.9299 26.85L52.5199 44.02H44.1699L48.2899 14.83H56.6399L56.1499 18C57.3025 16.8045 58.6853 15.855 60.215 15.2088C61.7446 14.5625 63.3894 14.233 65.0499 14.24C69.2199 14.24 72.1999 16.13 73.5099 19.24C74.7563 17.6736 76.3413 16.41 78.146 15.544C79.9507 14.678 81.9282 14.2322 83.9299 14.24C90.2799 14.24 93.8299 18.53 92.9299 25.05L91.7299 33.69C91.5499 35.18 92.2399 36.04 93.7299 36.04L94.3699 36Z" fill="#DEDFDE"/>
<path d="M128.7 32.78C127.7 39.87 122.46 44.78 114.85 44.78C112.942 44.8563 111.041 44.5115 109.282 43.7701C107.522 43.0286 105.948 41.9087 104.67 40.49L102.67 44.1H94.09L110.45 14.92H120.05C119.83 22.42 130.19 22.13 128.7 32.78ZM113.82 23.78L108.45 33.68C109.084 34.6704 109.968 35.4765 111.012 36.0171C112.057 36.5578 113.225 36.814 114.4 36.76C117.4 36.76 119.72 35.16 120.12 32.65C120.63 29.06 115.88 27.74 113.82 23.74V23.78Z" fill="#DEDFDE"/>
<path d="M142.05 33.23C141.76 35.29 142.79 36.5 144.97 36.5H147.97L146.89 44.11H142.71C135.71 44.11 132.64 40.84 133.56 34.61L135.21 22.53H130.81L131.9 14.92H134.36C134.698 14.9564 135.039 14.9215 135.363 14.8177C135.686 14.7138 135.984 14.5433 136.238 14.3172C136.491 14.091 136.694 13.8143 136.834 13.5047C136.974 13.1951 137.048 12.8597 137.05 12.52L137.85 7.26001H145.74L144.66 14.92H151.05L149.96 22.53H143.67L142.05 33.23Z" fill="#DEDFDE"/>
<path d="M152.1 29.52C152.754 25.2401 154.929 21.3393 158.226 18.5329C161.523 15.7264 165.721 14.2023 170.05 14.24C177.89 14.24 183.33 19.33 183.67 26.43H174.8C174.405 25.1931 173.614 24.1202 172.55 23.3759C171.486 22.6316 170.207 22.2571 168.91 22.31C166.906 22.3237 164.975 23.0609 163.472 24.3858C161.969 25.7106 160.995 27.534 160.73 29.52C160.15 33.64 162.79 36.72 166.85 36.72C168.286 36.7051 169.694 36.3187 170.936 35.5985C172.179 34.8783 173.213 33.8487 173.94 32.61H182.81C181.592 36.1756 179.285 39.269 176.216 41.4541C173.146 43.6393 169.468 44.8061 165.7 44.79C156.68 44.79 150.9 38.21 152.1 29.52Z" fill="#DEDFDE"/>
<path d="M217.68 29.63C217.574 30.5041 217.38 31.3652 217.1 32.2H194.79C194.94 33.7262 195.676 35.1347 196.844 36.1289C198.011 37.1231 199.519 37.6254 201.05 37.53C202.265 37.5587 203.473 37.3344 204.598 36.8713C205.722 36.4083 206.737 35.7165 207.58 34.84H216.5C214.907 37.8725 212.512 40.409 209.576 42.1726C206.639 43.9361 203.275 44.8589 199.85 44.84C190.85 44.84 185.03 38.26 186.23 29.57C186.883 25.2969 189.052 21.4016 192.34 18.596C195.629 15.7905 199.817 14.262 204.14 14.29C213.1 14.24 218.93 20.76 217.68 29.63ZM195.68 26.63H209.18C209.033 25.1609 208.33 23.8037 207.214 22.8368C206.098 21.8698 204.655 21.3665 203.18 21.43C201.549 21.4558 199.962 21.9658 198.621 22.8952C197.281 23.8247 196.246 25.1316 195.65 26.65L195.68 26.63Z" fill="#DEDFDE"/>
</svg>
