<svg width="1318" height="443" viewBox="0 0 1318 443" fill="none" xmlns="http://www.w3.org/2000/svg">
<path d="M278.439 316V286.224L255 255.233H265.244L282.606 278.238L300.054 255.233H310.298L286.859 286.224V316H278.439ZM311.776 285.616C311.776 264.782 321.759 253.931 342.42 253.931C363.167 253.931 373.15 264.782 373.15 285.616C373.15 306.451 363.167 317.302 342.42 317.302C321.759 317.302 311.776 306.451 311.776 285.616ZM320.63 285.616C320.63 301.242 327.662 309.316 342.42 309.316C357.177 309.316 364.296 301.242 364.296 285.616C364.296 269.991 357.177 261.917 342.42 261.917C327.402 261.917 320.63 269.991 320.63 285.616ZM405.67 309.316C417.129 309.316 423.813 304.541 423.813 292.388V255.233H432.233V291.172C432.233 311.225 421.209 317.302 405.67 317.302C390.131 317.302 379.193 311.225 379.193 291.172V255.233H387.613V292.388C387.613 304.541 394.211 309.316 405.67 309.316ZM440.082 316V255.233H467.253C484.789 255.233 491.994 261.57 491.994 273.724C491.994 285.096 486.004 291.346 471.854 292.214L490.952 316H480.535L461.611 292.301H448.502V316H440.082ZM448.502 284.488H467.34C479.32 284.488 483.226 280.842 483.226 273.724C483.226 266.605 479.32 263.046 467.34 263.046H448.502V284.488ZM547.596 317.302C529.887 317.302 519.73 306.885 519.73 285.53C519.73 264.174 529.453 253.931 549.592 253.931C568.083 253.931 578.674 260.181 578.674 276.328H570.6C570.6 264.088 559.576 261.917 549.158 261.917C534.14 261.917 528.584 269.036 528.584 285.443C528.584 302.197 536.137 309.316 549.158 309.316C558.621 309.316 564.524 301.242 568.864 292.474H549.853V285.009H579.108V316H571.035V300.287C565.826 309.576 558.36 317.302 547.596 317.302ZM584.142 316L609.664 255.233H618.779L644.215 316H635.1L630.325 304.628H598.032L593.257 316H584.142ZM601.331 296.815H627.113L614.178 266.084L601.331 296.815ZM654.462 316V263.046H634.235V255.233H683.109V263.046H662.882V316H654.462ZM688.897 316V255.233H735.775V263.046H697.318V281.71H732.302V289.523H697.318V308.187H736.643V316H688.897ZM786.563 255.233L802.362 302.371L818.075 255.233H827.19L806.876 316H797.761L782.049 268.862L766.336 316H757.221L736.907 255.233H746.022L761.735 302.371L777.448 255.233H786.563ZM816.596 316L842.118 255.233H851.233L876.669 316H867.554L862.779 304.628H830.486L825.711 316H816.596ZM833.785 296.815H859.567L846.633 266.084L833.785 296.815ZM891.28 316V286.224L867.841 255.233H878.085L895.447 278.238L912.896 255.233H923.139L899.701 286.224V316H891.28ZM967.368 316V263.046H947.141V255.233H996.015V263.046H975.788V316H967.368ZM998.202 285.616C998.202 264.782 1008.19 253.931 1028.85 253.931C1049.59 253.931 1059.58 264.782 1059.58 285.616C1059.58 306.451 1049.59 317.302 1028.85 317.302C1008.19 317.302 998.202 306.451 998.202 285.616ZM1007.06 285.616C1007.06 301.242 1014.09 309.316 1028.85 309.316C1043.6 309.316 1050.72 301.242 1050.72 285.616C1050.72 269.991 1043.6 261.917 1028.85 261.917C1013.83 261.917 1007.06 269.991 1007.06 285.616Z" fill="white"/>
<path d="M4.3405 412.55V351.783H12.7611V412.55H4.3405ZM21.4651 412.55V351.783H29.8857V412.55H21.4651ZM64.6965 412.55V351.783H73.1171V412.55H64.6965ZM23.809 357.425L29.8857 351.783L69.1238 404.65L64.6965 412.55L23.809 357.425ZM81.8252 412.55V351.783H90.2458V412.55H81.8252ZM125.057 412.55V351.783H133.477V412.55H125.057ZM84.1691 357.425L90.2458 351.783L129.484 404.65L125.057 412.55L84.1691 357.425ZM140.449 382.166C140.449 371.691 142.967 363.792 148.002 358.467C153.037 353.143 160.734 350.481 171.093 350.481C181.51 350.481 189.236 353.143 194.271 358.467C199.306 363.792 201.824 371.691 201.824 382.166C201.824 392.641 199.306 400.541 194.271 405.865C189.236 411.19 181.51 413.852 171.093 413.852C160.734 413.852 153.037 411.19 148.002 405.865C142.967 400.541 140.449 392.641 140.449 382.166ZM149.304 382.166C149.304 390.037 151.069 395.969 154.599 399.962C158.187 403.898 163.685 405.865 171.093 405.865C178.559 405.865 184.057 403.898 187.587 399.962C191.175 395.969 192.969 390.037 192.969 382.166C192.969 374.296 191.175 368.392 187.587 364.457C184.057 360.464 178.559 358.467 171.093 358.467C163.627 358.467 158.129 360.464 154.599 364.457C151.069 368.45 149.304 374.353 149.304 382.166ZM261.601 351.783L236.687 412.55H227.572L252.486 351.783H261.601ZM202.657 351.783H211.772L236.687 412.55H227.572L202.657 351.783ZM250.979 412.55L276.501 351.783H285.616L260.094 412.55H250.979ZM260.528 401.178V393.365H301.329V401.178H260.528ZM311.052 412.55H301.937L276.501 351.783H285.616L311.052 412.55ZM321.299 412.55V351.783H329.719V412.55H321.299ZM301.072 359.596V351.783H349.946V359.596H301.072ZM355.734 412.55V351.783H364.155V412.55H355.734ZM425.726 351.783L400.812 412.55H391.697L416.611 351.783H425.726ZM366.782 351.783H375.897L400.812 412.55H391.697L366.782 351.783ZM428.302 412.55V351.783H436.723V412.55H428.302ZM430.646 386.073V378.26H471.707V386.073H430.646ZM430.646 359.596V351.783H475.18V359.596H430.646ZM430.646 412.55V404.737H476.048V412.55H430.646ZM504.939 412.55V351.783H513.36V412.55H504.939ZM529.246 412.55H504.939V404.737H530.114C533.239 404.737 536.075 404.274 538.621 403.348C541.168 402.364 543.309 400.946 545.045 399.094C546.839 397.184 548.228 394.812 549.212 391.976C550.196 389.14 550.688 385.841 550.688 382.079C550.688 378.376 550.196 375.135 549.212 372.357C548.228 369.521 546.839 367.177 545.045 365.325C543.309 363.415 541.168 361.997 538.621 361.071C536.075 360.088 533.239 359.596 530.114 359.596H504.939V351.783H529.246C533.992 351.783 538.245 352.419 542.007 353.693C545.769 354.966 548.923 356.876 551.469 359.422C554.074 361.969 556.041 365.152 557.372 368.971C558.761 372.733 559.456 377.131 559.456 382.166C559.456 387.201 558.761 391.629 557.372 395.448C556.041 399.21 554.074 402.364 551.469 404.911C548.923 407.457 545.769 409.367 542.007 410.64C538.245 411.913 533.992 412.55 529.246 412.55ZM566.401 412.55V351.783H574.822V412.55H566.401ZM609.656 413.852C605.2 413.852 601.235 413.215 597.763 411.942C594.348 410.611 591.455 408.643 589.082 406.039C586.709 403.377 584.886 400.049 583.613 396.056C582.397 392.063 581.79 387.404 581.79 382.079C581.79 371.315 584.22 363.357 589.082 358.207C594.001 353.056 601.525 350.481 611.652 350.481C616.282 350.481 620.391 350.886 623.979 351.696C627.625 352.506 630.664 353.808 633.094 355.602C635.583 357.397 637.464 359.711 638.737 362.547C640.068 365.383 640.734 368.827 640.734 372.878H632.66C632.66 369.81 632.024 367.351 630.751 365.499C629.477 363.589 627.828 362.113 625.802 361.071C623.777 360.03 621.491 359.335 618.944 358.988C616.398 358.641 613.823 358.467 611.218 358.467C607.457 358.467 604.274 358.93 601.669 359.856C599.065 360.724 596.924 362.142 595.245 364.11C593.625 366.02 592.438 368.45 591.686 371.402C590.992 374.353 590.644 377.884 590.644 381.993C590.644 386.16 591.107 389.748 592.033 392.757C592.959 395.767 594.29 398.255 596.027 400.223C597.763 402.133 599.904 403.551 602.451 404.476C604.997 405.402 607.92 405.865 611.218 405.865C614.054 405.865 616.572 405.229 618.771 403.956C621.028 402.625 623.025 400.917 624.761 398.834C626.555 396.693 628.146 394.32 629.535 391.715C630.982 389.053 632.255 386.42 633.355 383.816L638.303 385.205C637.088 388.561 635.612 391.947 633.876 395.361C632.14 398.776 630.114 401.872 627.799 404.65C625.484 407.37 622.822 409.598 619.813 411.334C616.803 413.013 613.418 413.852 609.656 413.852ZM633.094 412.55V386.507H641.168V412.55H633.094ZM611.913 389.024V381.559H641.168V389.024H611.913ZM648.973 412.55V351.783H657.393V412.55H648.973ZM683.459 412.55V351.783H691.88V412.55H683.459ZM663.232 359.596V351.783H712.107V359.596H663.232ZM703.595 412.55L729.117 351.783H738.232L712.71 412.55H703.595ZM713.144 401.178V393.365H753.945V401.178H713.144ZM763.668 412.55H754.553L729.117 351.783H738.232L763.668 412.55ZM769.608 412.55V351.783H778.029V412.55H769.608ZM771.952 412.55V404.737H816.225V412.55H771.952ZM875.098 413.852C864.276 413.852 856.232 411.248 850.965 406.039C845.757 400.83 843.152 392.844 843.152 382.079C843.152 371.315 845.583 363.357 850.444 358.207C855.364 353.056 862.887 350.481 873.015 350.481C877.645 350.481 881.754 350.886 885.342 351.696C888.988 352.506 892.026 353.808 894.457 355.602C896.946 357.397 898.826 359.711 900.1 362.547C901.431 365.383 902.096 368.827 902.096 372.878H894.023C894.023 369.81 893.386 367.351 892.113 365.499C890.84 363.589 889.191 362.113 887.165 361.071C885.139 360.03 882.853 359.335 880.307 358.988C877.761 358.641 875.185 358.467 872.581 358.467C868.819 358.467 865.636 358.93 863.032 359.856C860.427 360.724 858.286 362.142 856.608 364.11C854.987 366.02 853.801 368.45 853.049 371.402C852.354 374.353 852.007 377.913 852.007 382.079C852.007 390.355 853.946 396.403 857.823 400.223C861.701 403.985 867.633 405.865 875.619 405.865C877.876 405.865 880.104 405.721 882.304 405.431C884.561 405.084 886.586 404.448 888.38 403.522C890.174 402.538 891.621 401.178 892.721 399.441C893.82 397.647 894.37 395.246 894.37 392.236H902.444C902.444 396.287 901.778 399.702 900.447 402.48C899.174 405.2 897.351 407.399 894.978 409.077C892.605 410.756 889.711 411.971 886.297 412.723C882.94 413.476 879.207 413.852 875.098 413.852ZM908.555 412.55V351.783H916.975V412.55H908.555ZM936.855 388.851H908.555V381.038H935.813C938.823 381.038 941.34 380.806 943.366 380.343C945.391 379.88 947.012 379.215 948.227 378.347C949.442 377.421 950.31 376.292 950.831 374.961C951.41 373.63 951.699 372.067 951.699 370.273C951.699 368.479 951.41 366.917 950.831 365.586C950.31 364.255 949.442 363.155 948.227 362.287C947.012 361.419 945.391 360.753 943.366 360.29C941.34 359.827 938.823 359.596 935.813 359.596H908.555V351.783H935.726C940.125 351.783 943.886 352.188 947.012 352.998C950.137 353.75 952.683 354.908 954.651 356.471C956.676 358.033 958.152 359.972 959.078 362.287C960.004 364.544 960.467 367.206 960.467 370.273C960.467 373.341 960.004 376.032 959.078 378.347C958.21 380.662 956.821 382.6 954.911 384.163C953.002 385.726 950.542 386.912 947.532 387.722C944.581 388.474 941.022 388.851 936.855 388.851ZM935.119 382.166L959.425 412.55H949.008L924.701 382.166H935.119ZM967.389 412.55V351.783H975.809V412.55H967.389ZM969.733 386.073V378.26H1010.79V386.073H969.733ZM969.733 359.596V351.783H1014.27V359.596H969.733ZM969.733 412.55V404.737H1015.13V412.55H969.733ZM1015.4 412.55L1040.92 351.783H1050.04L1024.51 412.55H1015.4ZM1024.95 401.178V393.365H1065.75V401.178H1024.95ZM1075.47 412.55H1066.36L1040.92 351.783H1050.04L1075.47 412.55ZM1085.72 412.55V351.783H1094.14V412.55H1085.72ZM1065.49 359.596V351.783H1114.37V359.596H1065.49ZM1120.15 412.55V351.783H1128.57V412.55H1120.15ZM1135.54 382.166C1135.54 371.691 1138.06 363.792 1143.1 358.467C1148.13 353.143 1155.83 350.481 1166.19 350.481C1176.6 350.481 1184.33 353.143 1189.36 358.467C1194.4 363.792 1196.92 371.691 1196.92 382.166C1196.92 392.641 1194.4 400.541 1189.36 405.865C1184.33 411.19 1176.6 413.852 1166.19 413.852C1155.83 413.852 1148.13 411.19 1143.1 405.865C1138.06 400.541 1135.54 392.641 1135.54 382.166ZM1144.4 382.166C1144.4 390.037 1146.16 395.969 1149.69 399.962C1153.28 403.898 1158.78 405.865 1166.19 405.865C1173.65 405.865 1179.15 403.898 1182.68 399.962C1186.27 395.969 1188.06 390.037 1188.06 382.166C1188.06 374.296 1186.27 368.392 1182.68 364.457C1179.15 360.464 1173.65 358.467 1166.19 358.467C1158.72 358.467 1153.22 360.464 1149.69 364.457C1146.16 368.45 1144.4 374.353 1144.4 382.166ZM1203.83 412.55V351.783H1212.25V412.55H1203.83ZM1247.06 412.55V351.783H1255.48V412.55H1247.06ZM1206.17 357.425L1212.25 351.783L1251.49 404.65L1247.06 412.55L1206.17 357.425ZM1286.76 386.16C1283.29 385.407 1280.1 384.626 1277.21 383.816C1274.32 383.005 1271.83 381.935 1269.74 380.604C1267.66 379.215 1266.04 377.508 1264.88 375.482C1263.72 373.456 1263.15 370.881 1263.15 367.756C1263.15 361.621 1265.23 357.223 1269.4 354.561C1273.56 351.841 1280.1 350.481 1289.02 350.481C1292.89 350.481 1296.39 350.857 1299.52 351.609C1302.64 352.304 1305.28 353.461 1307.42 355.082C1309.56 356.702 1311.21 358.843 1312.37 361.506C1313.52 364.11 1314.1 367.322 1314.1 371.141H1306.03C1306.03 368.364 1305.54 366.164 1304.55 364.544C1303.63 362.866 1302.36 361.621 1300.73 360.811C1299.11 359.943 1297.23 359.393 1295.09 359.162C1293.01 358.872 1290.78 358.728 1288.41 358.728C1285.28 358.728 1282.65 358.93 1280.51 359.335C1278.42 359.683 1276.75 360.232 1275.47 360.985C1274.2 361.737 1273.27 362.663 1272.69 363.763C1272.17 364.804 1271.91 366.02 1271.91 367.409C1271.91 368.913 1272.29 370.187 1273.04 371.228C1273.85 372.27 1275.01 373.196 1276.51 374.006C1278.02 374.759 1279.87 375.395 1282.07 375.916C1284.33 376.437 1286.9 376.929 1289.8 377.392C1293.85 378.086 1297.44 378.896 1300.56 379.822C1303.69 380.691 1306.29 381.848 1308.37 383.295C1310.52 384.684 1312.11 386.449 1313.15 388.59C1314.25 390.674 1314.8 393.249 1314.8 396.316C1314.8 402.509 1312.66 406.994 1308.37 409.772C1304.09 412.492 1297.38 413.852 1288.23 413.852C1284.24 413.852 1280.65 413.476 1277.47 412.723C1274.29 412.029 1271.57 410.871 1269.31 409.251C1267.11 407.631 1265.4 405.518 1264.19 402.914C1263.03 400.252 1262.45 397.011 1262.45 393.191H1270.52C1270.52 396.027 1271.02 398.284 1272 399.962C1273.04 401.641 1274.4 402.914 1276.08 403.782C1277.82 404.65 1279.78 405.229 1281.98 405.518C1284.24 405.75 1286.58 405.865 1289.02 405.865C1294.74 405.865 1299 405.142 1301.78 403.695C1304.55 402.248 1305.94 399.962 1305.94 396.837C1305.94 394.58 1305.31 392.844 1304.03 391.629C1302.76 390.355 1301.17 389.4 1299.26 388.764C1297.35 388.069 1295.27 387.549 1293.01 387.201C1290.81 386.854 1288.73 386.507 1286.76 386.16Z" fill="white"/>
<path d="M360.462 55.958C356.251 81.1708 344.387 104.478 326.48 122.719C332.345 126.188 339.065 127.944 345.877 127.787H352.55L348.174 157.212H339.825C325.348 157.507 311.203 152.865 299.717 144.049C290.786 149.514 281.256 153.931 271.313 157.212L263 132.783C269.814 130.297 276.362 127.133 282.543 123.339C274.412 107.259 271.277 86.4034 274.631 62.8492C279.845 25.6949 300.154 4.51074 326.37 4.51074C351.31 4.62013 365.056 23.6166 360.462 55.958ZM321.667 34.0811C314.593 34.0811 308.942 42.4308 306.243 60.5886C304.023 73.7699 305.024 87.2927 309.16 100.004C319.803 87.4857 326.737 72.2428 329.178 55.9944C331.074 41.7744 328.339 34.0446 321.667 34.0446V34.0811Z" fill="white"/>
<path d="M381.354 50.9266H411.799L396.777 157.358H366.404L381.354 50.9266ZM382.156 18.6217C382.938 13.4673 385.535 8.76155 389.479 5.35225C393.423 1.94294 398.455 0.0541943 403.668 0.0262775C406.047 -0.111802 408.427 0.295605 410.624 1.21739C412.822 2.13917 414.78 3.55097 416.349 5.34496C417.918 7.13895 419.056 9.2677 419.677 11.5687C420.297 13.8697 420.384 16.2821 419.93 18.6217C419.188 23.8031 416.614 28.5471 412.674 31.9925C408.733 35.4378 403.688 37.3562 398.454 37.3994C396.059 37.528 393.666 37.1081 391.459 36.1716C389.251 35.2351 387.286 33.8067 385.714 31.9955C384.142 30.1843 383.004 28.038 382.387 25.7203C381.771 23.4026 381.691 20.9746 382.156 18.6217Z" fill="white"/>
<path d="M604.572 127.788L600.197 157.212H591.628C570.152 157.212 560.745 146.565 563.48 125.892L567.637 96.7223C569.314 85.2369 563.042 77.5435 551.995 77.5435C546.952 77.3291 541.988 78.8472 537.929 81.8456C533.869 84.8439 530.958 89.1417 529.68 94.0241L520.711 157.03H490.375L498.943 96.7223C500.62 85.2369 494.349 77.5435 483.301 77.5435C478.194 77.4136 473.192 79.0091 469.103 82.0722C465.015 85.1354 462.078 89.4873 460.768 94.4252L451.981 157.03H421.535L436.557 50.5984H467.003L465.216 62.1567C469.418 57.7978 474.46 54.3357 480.038 51.9794C485.615 49.6231 491.612 48.4215 497.667 48.4472C512.871 48.4472 523.737 55.3384 528.513 66.678C533.058 60.9667 538.837 56.3593 545.417 53.2018C551.998 50.0443 559.208 48.4187 566.506 48.4472C589.659 48.4472 602.603 64.0892 599.322 87.8621L594.946 119.365C594.29 124.798 596.806 127.933 602.239 127.933L604.572 127.788Z" fill="white"/>
<path d="M729.744 116.047C726.098 141.898 706.992 159.801 679.245 159.801C672.289 160.079 665.357 158.822 658.942 156.119C652.527 153.415 646.786 149.332 642.127 144.159L634.835 157.322H603.551L663.202 50.9268H698.205C697.403 78.2729 735.177 77.2155 729.744 116.047ZM675.489 83.2317L655.91 119.329C658.222 122.94 661.444 125.879 665.252 127.85C669.061 129.822 673.321 130.756 677.604 130.559C688.543 130.559 697.002 124.725 698.46 115.573C700.32 102.483 683.001 97.6705 675.489 83.0858V83.2317Z" fill="white"/>
<path d="M778.42 117.688C777.363 125.199 781.118 129.611 789.067 129.611H800.006L796.068 157.358H780.827C755.304 157.358 744.11 145.435 747.464 122.719L753.481 78.6739H737.438L741.412 50.9266H750.381C751.613 51.0592 752.858 50.932 754.038 50.5535C755.217 50.1749 756.304 49.5532 757.228 48.7287C758.152 47.9041 758.893 46.8949 759.404 45.7662C759.914 44.6375 760.181 43.4144 760.19 42.1758L763.106 22.9971H791.875L787.937 50.9266H811.236L807.261 78.6739H784.327L778.42 117.688Z" fill="white"/>
<path d="M815.064 104.16C817.449 88.5549 825.379 74.3321 837.4 64.0994C849.421 53.8666 864.727 48.3095 880.513 48.4468C909.099 48.4468 928.934 67.0058 930.173 92.8935H897.832C896.391 88.3836 893.509 84.4714 889.63 81.7577C885.75 79.0439 881.087 77.6786 876.356 77.8713C869.051 77.9213 862.009 80.6092 856.529 85.4399C851.048 90.2705 847.498 96.9187 846.531 104.16C844.416 119.182 854.042 130.412 868.845 130.412C874.081 130.358 879.214 128.949 883.744 126.323C888.274 123.697 892.047 119.943 894.696 115.427H927.038C922.596 128.427 914.186 139.706 902.994 147.674C891.801 155.641 878.391 159.896 864.652 159.837C831.764 159.837 810.689 135.845 815.064 104.16Z" fill="white"/>
<path d="M1054.18 104.561C1053.79 107.748 1053.08 110.888 1052.06 113.932H970.719C971.265 119.497 973.95 124.633 978.207 128.258C982.465 131.883 987.963 133.714 993.544 133.366C997.975 133.471 1002.38 132.653 1006.48 130.964C1010.58 129.276 1014.28 126.754 1017.35 123.558H1049.88C1044.07 134.615 1035.34 143.863 1024.63 150.294C1013.92 156.724 1001.66 160.088 989.168 160.019C956.353 160.019 935.132 136.028 939.508 104.343C941.889 88.7624 949.797 74.5595 961.788 64.3298C973.778 54.1002 989.049 48.5272 1004.81 48.6293C1037.48 48.447 1058.74 72.2199 1054.18 104.561ZM973.964 93.6229H1023.19C1022.65 88.2664 1020.09 83.3178 1016.02 79.7922C1011.95 76.2666 1006.69 74.4313 1001.31 74.6629C995.362 74.757 989.577 76.6165 984.689 80.0054C979.8 83.3942 976.029 88.1594 973.854 93.6958L973.964 93.6229Z" fill="white"/>
</svg>
