<svg width="1075" height="333" viewBox="0 0 1075 333" fill="none" xmlns="http://www.w3.org/2000/svg">
<path d="M4.63054 109.86V49.0931H13.0511V109.86H4.63054ZM6.97441 83.3831V75.5702H48.0355V83.3831H6.97441ZM6.97441 56.906V49.0931H51.5079V56.906H6.97441ZM6.97441 109.86V102.047H52.376V109.86H6.97441ZM58.7172 109.86V49.0931H67.1378V109.86H58.7172ZM61.0611 109.86V102.047H105.334V109.86H61.0611ZM111.448 109.86V49.0931H119.868V109.86H111.448ZM113.791 83.3831V75.5702H154.853V83.3831H113.791ZM113.791 56.906V49.0931H158.325V56.906H113.791ZM113.791 109.86V102.047H159.193V109.86H113.791ZM218.402 49.0931L193.487 109.86H184.372L209.286 49.0931H218.402ZM159.458 49.0931H168.573L193.487 109.86H184.372L159.458 49.0931ZM207.78 109.86L233.302 49.0931H242.417L216.895 109.86H207.78ZM217.329 98.488V90.6751H258.129V98.488H217.329ZM267.852 109.86H258.737L233.302 49.0931H242.417L267.852 109.86ZM278.099 109.86V49.0931H286.52V109.86H278.099ZM257.872 56.906V49.0931H306.746V56.906H257.872ZM312.535 109.86V49.0931H320.955V109.86H312.535ZM329.659 109.86V49.0931H338.08V109.86H329.659ZM372.891 109.86V49.0931H381.311V109.86H372.891ZM332.003 54.7358L338.08 49.0931L377.318 101.96L372.891 109.86L332.003 54.7358ZM416.149 111.162C411.693 111.162 407.729 110.526 404.256 109.252C400.842 107.921 397.948 105.954 395.575 103.349C393.202 100.687 391.379 97.3595 390.106 93.3662C388.891 89.3729 388.283 84.7141 388.283 79.3898C388.283 68.6254 390.714 60.6678 395.575 55.517C400.495 50.3663 408.018 47.791 418.146 47.791C422.776 47.791 426.885 48.1961 430.473 49.0063C434.119 49.8165 437.157 51.1187 439.588 52.9127C442.077 54.7068 443.957 57.0218 445.231 59.8575C446.562 62.6933 447.227 66.1368 447.227 70.1879H439.154C439.154 67.1206 438.517 64.661 437.244 62.8091C435.971 60.8993 434.321 59.4235 432.296 58.3818C430.27 57.3401 427.984 56.6456 425.438 56.2983C422.892 55.9511 420.316 55.7775 417.712 55.7775C413.95 55.7775 410.767 56.2405 408.163 57.1664C405.558 58.0345 403.417 59.4524 401.739 61.4201C400.118 63.3299 398.932 65.7606 398.18 68.7122C397.485 71.6637 397.138 75.194 397.138 79.303C397.138 83.4699 397.601 87.058 398.527 90.0674C399.453 93.0768 400.784 95.5654 402.52 97.5331C404.256 99.4429 406.398 100.861 408.944 101.787C411.49 102.713 414.413 103.176 417.712 103.176C420.548 103.176 423.065 102.539 425.264 101.266C427.521 99.9348 429.518 98.2276 431.254 96.1441C433.048 94.0028 434.64 91.63 436.029 89.0257C437.476 86.3635 438.749 83.7303 439.848 81.126L444.797 82.515C443.581 85.8716 442.105 89.2572 440.369 92.6717C438.633 96.0863 436.607 99.1825 434.293 101.96C431.978 104.68 429.315 106.909 426.306 108.645C423.297 110.323 419.911 111.162 416.149 111.162ZM439.588 109.86V83.8171H447.661V109.86H439.588ZM418.406 86.3346V78.8689H447.661V86.3346H418.406ZM478.016 109.86V49.0931H486.437V109.86H478.016ZM504.667 83.3831H478.103V75.5702H508.139C510.107 75.5702 511.901 75.4544 513.522 75.2229C515.2 74.9336 516.647 74.4416 517.862 73.7471C519.077 73.0527 520.003 72.0978 520.64 70.8824C521.335 69.6092 521.682 68.0177 521.682 66.1079C521.682 64.5453 521.335 63.1853 520.64 62.0278C520.003 60.8703 519.106 59.9154 517.949 59.1631C516.791 58.4107 515.402 57.8609 513.782 57.5137C512.162 57.1086 510.396 56.906 508.487 56.906H478.016V49.0931H507.879C511.93 49.0931 515.374 49.4693 518.209 50.2216C521.103 50.9161 523.447 51.9868 525.241 53.4336C527.093 54.8226 528.424 56.5877 529.234 58.729C530.102 60.8703 530.536 63.3299 530.536 66.1079C530.536 68.8858 530.044 71.3743 529.061 73.5735C528.135 75.7148 526.63 77.5089 524.546 78.9557C522.463 80.4026 519.772 81.5022 516.473 82.2545C513.232 83.0069 509.297 83.3831 504.667 83.3831ZM509.007 109.86H478.016V102.047H509.181C511.554 102.047 513.666 101.903 515.518 101.613C517.37 101.324 518.933 100.832 520.206 100.137C521.537 99.385 522.55 98.4012 523.244 97.1858C523.939 95.9705 524.286 94.4658 524.286 92.6717C524.286 91.1091 523.852 89.7781 522.984 88.6785C522.174 87.521 521.045 86.5372 519.598 85.7269C518.209 84.9167 516.589 84.338 514.737 83.9907C512.885 83.5856 510.975 83.3831 509.007 83.3831H478.103V75.5702H505.709C510.049 75.5702 513.898 75.9463 517.254 76.6987C520.669 77.451 523.534 78.5506 525.849 79.9975C528.221 81.3864 530.016 83.1516 531.231 85.2929C532.504 87.4342 533.141 89.8938 533.141 92.6717C533.141 95.5075 532.736 97.9961 531.925 100.137C531.115 102.279 529.755 104.073 527.845 105.52C525.993 106.966 523.534 108.066 520.466 108.818C517.399 109.513 513.579 109.86 509.007 109.86ZM539.224 109.86V49.0931H547.645V109.86H539.224ZM567.524 86.161H539.224V78.3481H566.483C569.492 78.3481 572.009 78.1166 574.035 77.6536C576.061 77.1906 577.681 76.5251 578.896 75.657C580.112 74.731 580.98 73.6025 581.501 72.2714C582.079 70.9403 582.369 69.3777 582.369 67.5836C582.369 65.7896 582.079 64.227 581.501 62.8959C580.98 61.5648 580.112 60.4652 578.896 59.5971C577.681 58.729 576.061 58.0635 574.035 57.6005C572.009 57.1375 569.492 56.906 566.483 56.906H539.224V49.0931H566.396C570.794 49.0931 574.556 49.4982 577.681 50.3084C580.806 51.0608 583.353 52.2183 585.32 53.7808C587.346 55.3434 588.822 57.2822 589.748 59.5971C590.674 61.8542 591.137 64.5164 591.137 67.5836C591.137 70.6509 590.674 73.342 589.748 75.657C588.879 77.9719 587.491 79.9107 585.581 81.4732C583.671 83.0358 581.211 84.2222 578.202 85.0324C575.25 85.7848 571.691 86.161 567.524 86.161ZM565.788 79.4766L590.095 109.86H579.678L555.371 79.4766H565.788ZM591.982 109.86L617.504 49.0931H626.619L601.097 109.86H591.982ZM601.531 98.488V90.6751H642.331V98.488H601.531ZM652.054 109.86H642.939L617.504 49.0931H626.619L652.054 109.86ZM657.994 109.86V49.0931H666.415V109.86H657.994ZM701.226 109.86V49.0931H709.646V109.86H701.226ZM660.338 54.7358L666.415 49.0931L705.653 101.96L701.226 109.86L660.338 54.7358ZM718.355 109.86V49.0931H726.775V109.86H718.355ZM742.661 109.86H718.355V102.047H743.529C746.655 102.047 749.49 101.584 752.037 100.658C754.583 99.6744 756.725 98.2565 758.461 96.4046C760.255 94.4947 761.644 92.1219 762.628 89.2861C763.611 86.4503 764.103 83.1516 764.103 79.3898C764.103 75.6859 763.611 72.445 762.628 69.6671C761.644 66.8313 760.255 64.4874 758.461 62.6355C756.725 60.7256 754.583 59.3077 752.037 58.3818C749.49 57.3979 746.655 56.906 743.529 56.906H718.355V49.0931H742.661C747.407 49.0931 751.661 49.7297 755.422 51.0029C759.184 52.2761 762.338 54.186 764.885 56.7324C767.489 59.2788 769.457 62.4618 770.788 66.2815C772.177 70.0433 772.871 74.4416 772.871 79.4766C772.871 84.5116 772.177 88.9389 770.788 92.7585C769.457 96.5203 767.489 99.6744 764.885 102.221C762.338 104.767 759.184 106.677 755.422 107.95C751.661 109.224 747.407 109.86 742.661 109.86ZM802.387 83.4699C798.915 82.7175 795.732 81.9362 792.838 81.126C789.945 80.3158 787.456 79.2451 785.373 77.914C783.289 76.5251 781.669 74.8178 780.511 72.7922C779.354 70.7667 778.775 68.1913 778.775 65.0661C778.775 58.9316 780.858 54.5332 785.025 51.871C789.192 49.151 795.732 47.791 804.644 47.791C808.522 47.791 812.023 48.1671 815.148 48.9195C818.274 49.614 820.907 50.7714 823.048 52.3919C825.189 54.0123 826.839 56.1537 827.996 58.8158C829.154 61.4201 829.732 64.6321 829.732 68.4517H821.659C821.659 65.6738 821.167 63.4746 820.183 61.8542C819.257 60.1759 817.984 58.9316 816.364 58.1213C814.743 57.2532 812.862 56.7035 810.721 56.472C808.638 56.1826 806.409 56.0379 804.037 56.0379C800.912 56.0379 798.278 56.2405 796.137 56.6456C794.054 56.9928 792.375 57.5426 791.102 58.295C789.829 59.0473 788.903 59.9733 788.324 61.0729C787.803 62.1146 787.543 63.3299 787.543 64.7189C787.543 66.2236 787.919 67.4968 788.671 68.5385C789.482 69.5803 790.639 70.5062 792.144 71.3165C793.648 72.0688 795.5 72.7054 797.7 73.2263C799.957 73.7471 802.532 74.2391 805.426 74.7021C809.477 75.3965 813.065 76.2068 816.19 77.1327C819.315 78.0008 821.92 79.1583 824.003 80.6051C826.144 81.9941 827.736 83.7592 828.778 85.9005C829.877 87.984 830.427 90.5594 830.427 93.6266C830.427 99.8191 828.286 104.304 824.003 107.082C819.72 109.802 813.007 111.162 803.863 111.162C799.87 111.162 796.282 110.786 793.099 110.034C789.916 109.339 787.196 108.182 784.938 106.561C782.739 104.941 781.032 102.828 779.817 100.224C778.659 97.562 778.08 94.3211 778.08 90.5015H786.154C786.154 93.3373 786.646 95.5943 787.63 97.2727C788.671 98.951 790.031 100.224 791.71 101.092C793.446 101.96 795.414 102.539 797.613 102.828C799.87 103.06 802.214 103.176 804.644 103.176C810.374 103.176 814.628 102.452 817.405 101.005C820.183 99.5587 821.572 97.2727 821.572 94.1475C821.572 91.8904 820.936 90.1542 819.662 88.9389C818.389 87.6657 816.798 86.7108 814.888 86.0742C812.978 85.3797 810.895 84.8588 808.638 84.5116C806.438 84.1643 804.355 83.8171 802.387 83.4699ZM903.508 49.0931L883.281 109.86H874.166L894.393 49.0931H903.508ZM853.853 49.0931H862.968L883.281 109.86H874.166L853.853 49.0931ZM944.135 49.0931L923.822 109.86H914.707L935.02 49.0931H944.135ZM894.393 49.0931H903.508L923.822 109.86H914.707L894.393 49.0931ZM946.739 109.86V49.0931H955.16V109.86H946.739ZM981.226 109.86V49.0931H989.647V109.86H981.226ZM960.999 56.906V49.0931H1009.87V56.906H960.999ZM1015.66 109.86V49.0931H1024.08V109.86H1015.66ZM1060.8 109.86V49.0931H1069.22V109.86H1060.8ZM1018.53 83.3831V75.5702H1064.54V83.3831H1018.53Z" fill="#DEDFDE"/>
<path d="M2.89434 176.026C2.89434 165.551 5.41183 157.652 10.4468 152.327C15.4818 147.003 23.1789 144.341 33.5383 144.341C43.9555 144.341 51.6816 147.003 56.7165 152.327C61.7515 157.652 64.269 165.551 64.269 176.026C64.269 186.501 61.7515 194.401 56.7165 199.726C51.6816 205.05 43.9555 207.712 33.5383 207.712C23.1789 207.712 15.4818 205.05 10.4468 199.726C5.41183 194.401 2.89434 186.501 2.89434 176.026ZM11.749 176.026C11.749 183.897 13.5141 189.829 17.0444 193.822C20.6325 197.758 26.1305 199.726 33.5383 199.726C41.0039 199.726 46.5019 197.758 50.0322 193.822C53.6203 189.829 55.4144 183.897 55.4144 176.026C55.4144 168.156 53.6203 162.253 50.0322 158.317C46.5019 154.324 41.0039 152.327 33.5383 152.327C26.0726 152.327 20.5746 154.324 17.0444 158.317C13.5141 162.31 11.749 168.214 11.749 176.026ZM96.7882 199.726C99.6818 199.726 102.228 199.407 104.427 198.771C106.685 198.134 108.594 197.15 110.157 195.819C111.719 194.43 112.906 192.665 113.716 190.524C114.526 188.382 114.931 185.807 114.931 182.798V145.643H123.352V181.582C123.352 186.617 122.686 190.813 121.355 194.17C120.024 197.468 118.201 200.131 115.886 202.156C113.571 204.182 110.765 205.6 107.466 206.41C104.225 207.278 100.666 207.712 96.7882 207.712C92.9107 207.712 89.3515 207.278 86.1105 206.41C82.8696 205.6 80.0628 204.182 77.69 202.156C75.375 200.131 73.552 197.468 72.2209 194.17C70.9477 190.813 70.3111 186.617 70.3111 181.582V145.643H78.7317V182.798C78.7317 185.807 79.1368 188.382 79.947 190.524C80.7573 192.665 81.9147 194.43 83.4194 195.819C84.982 197.15 86.8918 198.134 89.1489 198.771C91.406 199.407 93.9524 199.726 96.7882 199.726ZM131.2 206.41V145.643H139.621V206.41H131.2ZM159.5 182.711H131.2V174.898H158.459C161.468 174.898 163.985 174.666 166.011 174.203C168.037 173.74 169.657 173.075 170.872 172.207C172.088 171.281 172.956 170.152 173.477 168.821C174.055 167.49 174.345 165.928 174.345 164.133C174.345 162.339 174.055 160.777 173.477 159.446C172.956 158.115 172.088 157.015 170.872 156.147C169.657 155.279 168.037 154.613 166.011 154.15C163.985 153.687 161.468 153.456 158.459 153.456H131.2V145.643H158.372C162.77 145.643 166.532 146.048 169.657 146.858C172.782 147.611 175.329 148.768 177.296 150.331C179.322 151.893 180.798 153.832 181.724 156.147C182.65 158.404 183.113 161.066 183.113 164.133C183.113 167.201 182.65 169.892 181.724 172.207C180.856 174.522 179.467 176.46 177.557 178.023C175.647 179.586 173.187 180.772 170.178 181.582C167.226 182.335 163.667 182.711 159.5 182.711ZM157.764 176.026L182.071 206.41H171.654L147.347 176.026H157.764ZM242.794 207.712C231.972 207.712 223.928 205.108 218.661 199.899C213.453 194.691 210.848 186.704 210.848 175.94C210.848 165.175 213.279 157.218 218.14 152.067C223.06 146.916 230.583 144.341 240.711 144.341C245.341 144.341 249.45 144.746 253.038 145.556C256.684 146.366 259.722 147.668 262.153 149.463C264.642 151.257 266.523 153.572 267.796 156.407C269.127 159.243 269.792 162.687 269.792 166.738H261.719C261.719 163.67 261.082 161.211 259.809 159.359C258.536 157.449 256.887 155.973 254.861 154.932C252.835 153.89 250.549 153.195 248.003 152.848C245.457 152.501 242.881 152.327 240.277 152.327C236.515 152.327 233.332 152.79 230.728 153.716C228.124 154.584 225.982 156.002 224.304 157.97C222.683 159.88 221.497 162.31 220.745 165.262C220.05 168.214 219.703 171.773 219.703 175.94C219.703 184.215 221.642 190.263 225.519 194.083C229.397 197.845 235.329 199.726 243.315 199.726C245.572 199.726 247.8 199.581 250 199.291C252.257 198.944 254.282 198.308 256.076 197.382C257.87 196.398 259.317 195.038 260.417 193.302C261.516 191.508 262.066 189.106 262.066 186.096H270.14C270.14 190.148 269.474 193.562 268.143 196.34C266.87 199.06 265.047 201.259 262.674 202.938C260.301 204.616 257.407 205.831 253.993 206.584C250.636 207.336 246.903 207.712 242.794 207.712ZM274.515 176.026C274.515 165.551 277.032 157.652 282.067 152.327C287.102 147.003 294.799 144.341 305.159 144.341C315.576 144.341 323.302 147.003 328.337 152.327C333.372 157.652 335.889 165.551 335.889 176.026C335.889 186.501 333.372 194.401 328.337 199.726C323.302 205.05 315.576 207.712 305.159 207.712C294.799 207.712 287.102 205.05 282.067 199.726C277.032 194.401 274.515 186.501 274.515 176.026ZM283.369 176.026C283.369 183.897 285.134 189.829 288.665 193.822C292.253 197.758 297.751 199.726 305.159 199.726C312.624 199.726 318.122 197.758 321.652 193.822C325.241 189.829 327.035 183.897 327.035 176.026C327.035 168.156 325.241 162.253 321.652 158.317C318.122 154.324 312.624 152.327 305.159 152.327C297.693 152.327 292.195 154.324 288.665 158.317C285.134 162.31 283.369 168.214 283.369 176.026ZM342.8 206.41V145.643H351.22V206.41H342.8ZM344.97 151.025L351.22 145.643L380.128 199.812V206.41H374.572L344.97 151.025ZM411.987 206.41H403.567V145.643H411.987V206.41ZM409.817 151.025L380.128 206.41H374.572V199.812L403.567 145.643L409.817 151.025ZM420.708 206.41V145.643H429.129V206.41H420.708ZM447.88 186.183H420.708V178.37H447.966C450.976 178.37 453.493 178.11 455.519 177.589C457.545 177.068 459.165 176.287 460.38 175.245C461.596 174.203 462.464 172.901 462.985 171.339C463.563 169.776 463.853 167.953 463.853 165.87C463.853 163.786 463.563 161.963 462.985 160.401C462.464 158.838 461.596 157.565 460.38 156.581C459.165 155.539 457.545 154.758 455.519 154.237C453.493 153.716 450.976 153.456 447.966 153.456H420.708V145.643H447.88C452.278 145.643 456.04 146.077 459.165 146.945C462.29 147.755 464.837 149.029 466.804 150.765C468.83 152.443 470.306 154.555 471.232 157.102C472.158 159.59 472.621 162.513 472.621 165.87C472.621 169.226 472.158 172.178 471.232 174.724C470.306 177.213 468.859 179.325 466.891 181.061C464.923 182.74 462.377 184.013 459.252 184.881C456.127 185.749 452.336 186.183 447.88 186.183ZM479.542 206.41V145.643H487.963V206.41H479.542ZM507.842 182.711H479.542V174.898H506.801C509.81 174.898 512.328 174.666 514.353 174.203C516.379 173.74 517.999 173.075 519.214 172.207C520.43 171.281 521.298 170.152 521.819 168.821C522.397 167.49 522.687 165.928 522.687 164.133C522.687 162.339 522.397 160.777 521.819 159.446C521.298 158.115 520.43 157.015 519.214 156.147C517.999 155.279 516.379 154.613 514.353 154.15C512.328 153.687 509.81 153.456 506.801 153.456H479.542V145.643H506.714C511.112 145.643 514.874 146.048 517.999 146.858C521.124 147.611 523.671 148.768 525.638 150.331C527.664 151.893 529.14 153.832 530.066 156.147C530.992 158.404 531.455 161.066 531.455 164.133C531.455 167.201 530.992 169.892 530.066 172.207C529.198 174.522 527.809 176.46 525.899 178.023C523.989 179.586 521.529 180.772 518.52 181.582C515.568 182.335 512.009 182.711 507.842 182.711ZM506.106 176.026L530.413 206.41H519.996L495.689 176.026H506.106ZM538.376 206.41V145.643H546.797V206.41H538.376ZM540.72 179.933V172.12H581.781V179.933H540.72ZM540.72 153.456V145.643H585.254V153.456H540.72ZM540.72 206.41V198.597H586.122V206.41H540.72ZM592.463 206.41V145.643H600.884V206.41H592.463ZM637.604 206.41V145.643H646.025V206.41H637.604ZM595.328 179.933V172.12H641.337V179.933H595.328ZM654.688 206.41V145.643H663.109V206.41H654.688ZM657.032 179.933V172.12H698.093V179.933H657.032ZM657.032 153.456V145.643H701.566V153.456H657.032ZM657.032 206.41V198.597H702.434V206.41H657.032ZM708.775 206.41V145.643H717.195V206.41H708.775ZM752.006 206.41V145.643H760.427V206.41H752.006ZM711.119 151.286L717.195 145.643L756.434 198.51L752.006 206.41L711.119 151.286ZM791.706 180.02C788.233 179.267 785.05 178.486 782.156 177.676C779.263 176.866 776.774 175.795 774.691 174.464C772.607 173.075 770.987 171.368 769.829 169.342C768.672 167.316 768.093 164.741 768.093 161.616C768.093 155.481 770.177 151.083 774.344 148.421C778.51 145.701 785.05 144.341 793.963 144.341C797.84 144.341 801.342 144.717 804.467 145.469C807.592 146.164 810.225 147.321 812.366 148.942C814.508 150.562 816.157 152.703 817.315 155.366C818.472 157.97 819.051 161.182 819.051 165.002H810.977C810.977 162.224 810.485 160.024 809.502 158.404C808.576 156.726 807.302 155.481 805.682 154.671C804.062 153.803 802.181 153.253 800.039 153.022C797.956 152.732 795.728 152.588 793.355 152.588C790.23 152.588 787.597 152.79 785.455 153.195C783.372 153.543 781.694 154.092 780.42 154.845C779.147 155.597 778.221 156.523 777.642 157.623C777.122 158.664 776.861 159.88 776.861 161.269C776.861 162.773 777.237 164.047 777.99 165.088C778.8 166.13 779.957 167.056 781.462 167.866C782.967 168.619 784.819 169.255 787.018 169.776C789.275 170.297 791.85 170.789 794.744 171.252C798.795 171.946 802.383 172.757 805.508 173.683C808.634 174.551 811.238 175.708 813.321 177.155C815.463 178.544 817.054 180.309 818.096 182.45C819.195 184.534 819.745 187.109 819.745 190.176C819.745 196.369 817.604 200.854 813.321 203.632C809.039 206.352 802.325 207.712 793.181 207.712C789.188 207.712 785.6 207.336 782.417 206.584C779.234 205.889 776.514 204.732 774.257 203.111C772.058 201.491 770.35 199.378 769.135 196.774C767.978 194.112 767.399 190.871 767.399 187.051H775.472C775.472 189.887 775.964 192.144 776.948 193.822C777.99 195.501 779.35 196.774 781.028 197.642C782.764 198.51 784.732 199.089 786.931 199.378C789.188 199.61 791.532 199.726 793.963 199.726C799.692 199.726 803.946 199.002 806.724 197.555C809.502 196.108 810.891 193.822 810.891 190.697C810.891 188.44 810.254 186.704 808.981 185.489C807.708 184.215 806.116 183.261 804.206 182.624C802.296 181.929 800.213 181.409 797.956 181.061C795.757 180.714 793.673 180.367 791.706 180.02ZM826.697 206.41V145.643H835.118V206.41H826.697ZM896.689 145.643L871.775 206.41H862.66L887.574 145.643H896.689ZM837.745 145.643H846.86L871.775 206.41H862.66L837.745 145.643ZM899.265 206.41V145.643H907.686V206.41H899.265ZM901.609 179.933V172.12H942.67V179.933H901.609ZM901.609 153.456V145.643H946.143V153.456H901.609ZM901.609 206.41V198.597H947.011V206.41H901.609Z" fill="#DEDFDE"/>
<path d="M27.2011 276.57C23.7287 275.817 20.5457 275.036 17.652 274.226C14.7584 273.416 12.2698 272.345 10.1864 271.014C8.10294 269.625 6.48249 267.918 5.32502 265.892C4.16755 263.867 3.58882 261.291 3.58882 258.166C3.58882 252.031 5.67226 247.633 9.83914 244.971C14.006 242.251 20.5457 240.891 29.4582 240.891C33.3357 240.891 36.8371 241.267 39.9622 242.019C43.0874 242.714 45.7206 243.871 47.8619 245.492C50.0032 247.112 51.6526 249.254 52.8101 251.916C53.9676 254.52 54.5463 257.732 54.5463 261.552H46.473C46.473 258.774 45.981 256.574 44.9972 254.954C44.0712 253.276 42.798 252.031 41.1775 251.221C39.5571 250.353 37.6762 249.803 35.5349 249.572C33.4515 249.282 31.2233 249.138 28.8505 249.138C25.7254 249.138 23.0921 249.34 20.9508 249.745C18.8674 250.093 17.1891 250.642 15.9158 251.395C14.6426 252.147 13.7167 253.073 13.1379 254.173C12.6171 255.214 12.3566 256.43 12.3566 257.819C12.3566 259.323 12.7328 260.597 13.4852 261.638C14.2954 262.68 15.4529 263.606 16.9576 264.416C18.4623 265.169 20.3142 265.805 22.5134 266.326C24.7705 266.847 27.3458 267.339 30.2395 267.802C34.2906 268.496 37.8788 269.307 41.0039 270.233C44.1291 271.101 46.7334 272.258 48.8168 273.705C50.9581 275.094 52.5497 276.859 53.5914 279C54.691 281.084 55.2408 283.659 55.2408 286.726C55.2408 292.919 53.0995 297.404 48.8168 300.182C44.5342 302.902 37.8209 304.262 28.6769 304.262C24.6836 304.262 21.0955 303.886 17.9125 303.134C14.7294 302.439 12.0094 301.282 9.75233 299.661C7.55314 298.041 5.84588 295.928 4.63054 293.324C3.47307 290.662 2.89434 287.421 2.89434 283.601H10.9677C10.9677 286.437 11.4596 288.694 12.4434 290.373C13.4852 292.051 14.8452 293.324 16.5235 294.192C18.2597 295.06 20.2274 295.639 22.4266 295.928C24.6836 296.16 27.0275 296.276 29.4582 296.276C35.1877 296.276 39.4414 295.552 42.2193 294.105C44.9972 292.659 46.3861 290.373 46.3861 287.247C46.3861 284.99 45.7495 283.254 44.4763 282.039C43.2031 280.766 41.6116 279.811 39.7018 279.174C37.792 278.48 35.7085 277.959 33.4515 277.611C31.2523 277.264 29.1688 276.917 27.2011 276.57ZM62.193 302.96V242.193H70.6136V302.96H62.193ZM64.5369 276.483V268.67H105.598V276.483H64.5369ZM64.5369 250.006V242.193H109.07V250.006H64.5369ZM64.5369 302.96V295.147H109.939V302.96H64.5369ZM116.28 302.96V242.193H124.7V302.96H116.28ZM144.58 279.261H116.28V271.448H143.538C146.547 271.448 149.065 271.216 151.091 270.753C153.116 270.29 154.737 269.625 155.952 268.757C157.167 267.831 158.035 266.702 158.556 265.371C159.135 264.04 159.424 262.478 159.424 260.683C159.424 258.889 159.135 257.327 158.556 255.996C158.035 254.665 157.167 253.565 155.952 252.697C154.737 251.829 153.116 251.163 151.091 250.7C149.065 250.237 146.547 250.006 143.538 250.006H116.28V242.193H143.451C147.85 242.193 151.611 242.598 154.737 243.408C157.862 244.161 160.408 245.318 162.376 246.881C164.401 248.443 165.877 250.382 166.803 252.697C167.729 254.954 168.192 257.616 168.192 260.683C168.192 263.751 167.729 266.442 166.803 268.757C165.935 271.072 164.546 273.011 162.636 274.573C160.726 276.136 158.267 277.322 155.257 278.132C152.306 278.885 148.747 279.261 144.58 279.261ZM142.844 272.576L167.15 302.96H156.733L132.426 272.576H142.844ZM227.981 242.193L203.067 302.96H193.952L218.866 242.193H227.981ZM169.037 242.193H178.152L203.067 302.96H193.952L169.037 242.193ZM230.557 302.96V242.193H238.978V302.96H230.557ZM277.891 304.262C267.069 304.262 259.025 301.658 253.758 296.449C248.55 291.241 245.945 283.254 245.945 272.49C245.945 261.725 248.376 253.768 253.237 248.617C258.157 243.466 265.68 240.891 275.808 240.891C280.438 240.891 284.547 241.296 288.135 242.106C291.781 242.916 294.819 244.219 297.25 246.013C299.739 247.807 301.62 250.122 302.893 252.957C304.224 255.793 304.889 259.237 304.889 263.288H296.816C296.816 260.221 296.179 257.761 294.906 255.909C293.633 253.999 291.984 252.523 289.958 251.482C287.932 250.44 285.646 249.745 283.1 249.398C280.554 249.051 277.978 248.877 275.374 248.877C271.612 248.877 268.429 249.34 265.825 250.266C263.221 251.134 261.079 252.552 259.401 254.52C257.78 256.43 256.594 258.86 255.842 261.812C255.147 264.764 254.8 268.323 254.8 272.49C254.8 280.766 256.739 286.813 260.616 290.633C264.494 294.395 270.426 296.276 278.412 296.276C280.669 296.276 282.898 296.131 285.097 295.842C287.354 295.494 289.379 294.858 291.173 293.932C292.967 292.948 294.414 291.588 295.514 289.852C296.613 288.058 297.163 285.656 297.163 282.646H305.237C305.237 286.698 304.571 290.112 303.24 292.89C301.967 295.61 300.144 297.809 297.771 299.488C295.398 301.166 292.504 302.381 289.09 303.134C285.733 303.886 282 304.262 277.891 304.262ZM311.348 302.96V242.193H319.768V302.96H311.348ZM313.692 276.483V268.67H354.753V276.483H313.692ZM313.692 250.006V242.193H358.225V250.006H313.692ZM313.692 302.96V295.147H359.093V302.96H313.692ZM388.005 276.57C384.533 275.817 381.35 275.036 378.456 274.226C375.562 273.416 373.074 272.345 370.99 271.014C368.907 269.625 367.287 267.918 366.129 265.892C364.972 263.867 364.393 261.291 364.393 258.166C364.393 252.031 366.476 247.633 370.643 244.971C374.81 242.251 381.35 240.891 390.262 240.891C394.14 240.891 397.641 241.267 400.766 242.019C403.891 242.714 406.525 243.871 408.666 245.492C410.807 247.112 412.457 249.254 413.614 251.916C414.772 254.52 415.35 257.732 415.35 261.552H407.277C407.277 258.774 406.785 256.574 405.801 254.954C404.875 253.276 403.602 252.031 401.982 251.221C400.361 250.353 398.48 249.803 396.339 249.572C394.256 249.282 392.027 249.138 389.655 249.138C386.529 249.138 383.896 249.34 381.755 249.745C379.671 250.093 377.993 250.642 376.72 251.395C375.447 252.147 374.521 253.073 373.942 254.173C373.421 255.214 373.161 256.43 373.161 257.819C373.161 259.323 373.537 260.597 374.289 261.638C375.099 262.68 376.257 263.606 377.762 264.416C379.266 265.169 381.118 265.805 383.317 266.326C385.575 266.847 388.15 267.339 391.044 267.802C395.095 268.496 398.683 269.307 401.808 270.233C404.933 271.101 407.537 272.258 409.621 273.705C411.762 275.094 413.354 276.859 414.395 279C415.495 281.084 416.045 283.659 416.045 286.726C416.045 292.919 413.904 297.404 409.621 300.182C405.338 302.902 398.625 304.262 389.481 304.262C385.488 304.262 381.9 303.886 378.717 303.134C375.533 302.439 372.813 301.282 370.556 299.661C368.357 298.041 366.65 295.928 365.435 293.324C364.277 290.662 363.698 287.421 363.698 283.601H371.772C371.772 286.437 372.264 288.694 373.247 290.373C374.289 292.051 375.649 293.324 377.328 294.192C379.064 295.06 381.031 295.639 383.231 295.928C385.488 296.16 387.832 296.276 390.262 296.276C395.992 296.276 400.245 295.552 403.023 294.105C405.801 292.659 407.19 290.373 407.19 287.247C407.19 284.99 406.554 283.254 405.28 282.039C404.007 280.766 402.416 279.811 400.506 279.174C398.596 278.48 396.513 277.959 394.256 277.611C392.056 277.264 389.973 276.917 388.005 276.57Z" fill="#DEDFDE"/>
</svg>
