<svg width="1345" height="327" viewBox="0 0 1345 327" fill="none" xmlns="http://www.w3.org/2000/svg">
<path d="M28.2601 13.33H0.320068V2.53998H67.8301V13.33H39.8901V86.49H28.2601V13.33Z" fill="#DEDFDE"/>
<path d="M75.8701 2.53998H113.4C137.63 2.53998 147.58 11.3 147.58 28.08C147.58 43.8 139.31 52.43 119.76 53.63L146.14 86.49H131.75L105.61 53.75H87.5001V86.49H75.8701V2.53998ZM113.52 43C130.07 43 135.47 38 135.47 28.12C135.47 18.24 130.07 13.37 113.52 13.37H87.5201V43H113.52Z" fill="#DEDFDE"/>
<path d="M184.05 2.53998H196.64L231.78 86.54H219.18L212.58 70.83H167.97L161.37 86.54H148.78L184.05 2.53998ZM208.14 60L190.27 17.54L172.52 60H208.14Z" fill="#DEDFDE"/>
<path d="M239.92 2.53998H251.55L299.64 67.3V2.53998H311.28V86.54H299.64L251.55 21.61V86.49H239.92V2.53998Z" fill="#DEDFDE"/>
<path d="M321.83 24.61C321.83 7.69997 332.83 0.73999 357.57 0.73999C379.15 0.73999 392.23 8.17998 392.23 29.28H381.05C381.05 14.05 369.66 12.13 356.71 12.13C339.32 12.13 333.92 16.33 333.92 24.13C333.92 32.4 342.68 35.4 358.63 37.92C381.05 41.64 393.17 47.15 393.17 64.06C393.17 81.21 381.77 88.29 356.47 88.29C334.4 88.29 320.85 80.85 320.85 59.75H332.05C332.05 75.34 344.16 77.26 357.6 77.26C373.31 77.26 380.98 73.42 380.98 64.78C380.98 52.43 365.15 52.19 354.48 50.03C335.26 46 321.83 42 321.83 24.61Z" fill="#DEDFDE"/>
<path d="M402.78 2.53998H467.18V13.33H414.41V39.12H462.41V49.91H414.41V86.49H402.78V2.53998Z" fill="#DEDFDE"/>
<path d="M515.51 0.73999C544.17 0.73999 557.96 15.74 557.96 44.51C557.96 73.28 544.17 88.29 515.51 88.29C486.85 88.29 473.17 73.29 473.17 44.51C473.17 15.73 486.96 0.73999 515.51 0.73999ZM515.51 77.26C535.89 77.26 545.73 66.1 545.73 44.51C545.73 22.92 535.89 11.77 515.51 11.77C494.76 11.77 485.4 22.93 485.4 44.51C485.4 66.09 495.12 77.26 515.51 77.26Z" fill="#DEDFDE"/>
<path d="M567.55 2.53998H605.05C629.28 2.53998 639.23 11.3 639.23 28.08C639.23 43.8 630.96 52.43 611.41 53.63L637.79 86.49H623.4L597.26 53.75H579.15V86.49H567.55V2.53998ZM605.21 43C621.76 43 627.16 38 627.16 28.12C627.16 18.24 621.76 13.37 605.21 13.37H579.21V43H605.21Z" fill="#DEDFDE"/>
<path d="M648.86 2.53998H660.49L696.59 70.18L732.81 2.53998H744.44V86.54H732.81V26.05L700.43 86.49H692.75L660.49 26.05V86.49H648.86V2.53998Z" fill="#DEDFDE"/>
<path d="M756.43 2.53998H768.05V86.54H756.41L756.43 2.53998Z" fill="#DEDFDE"/>
<path d="M780.05 2.53998H791.68L839.77 67.3V2.53998H851.4V86.54H839.77L791.68 21.66V86.54H780.05V2.53998Z" fill="#DEDFDE"/>
<path d="M861.05 44.4C861.05 14.89 874.48 0.73999 902.3 0.73999C927.84 0.73999 942.48 9.37998 942.48 31.68H931.32C931.32 14.77 916.09 11.77 901.7 11.77C880.95 11.77 873.28 21.61 873.28 44.28C873.28 67.42 883.71 77.28 901.7 77.28C914.77 77.28 922.93 66.12 928.92 54.01H902.66V43.68H943.05V86.49H931.89V64.78C924.7 77.61 914.38 88.29 899.51 88.29C875.05 88.29 861.05 73.9 861.05 44.4Z" fill="#DEDFDE"/>
<path d="M985.05 2.53998H996.68V86.54H985.05V2.53998Z" fill="#DEDFDE"/>
<path d="M1008.63 2.53998H1042.21C1068.47 2.53998 1083.94 16.81 1083.94 44.54C1083.94 72.27 1068.47 86.54 1042.21 86.54H1008.63V2.53998ZM1043.41 75.7C1060.68 75.7 1071.83 65.14 1071.83 44.4C1071.83 23.89 1060.68 13.33 1043.41 13.33H1020.26V75.7H1043.41Z" fill="#DEDFDE"/>
<path d="M1093.54 2.53998H1158.3V13.33H1105.17V39.12H1153.5V49.91H1105.17V75.7H1159.5V86.49H1093.5L1093.54 2.53998Z" fill="#DEDFDE"/>
<path d="M1195.11 2.53998H1207.7L1242.84 86.54H1230.25L1223.65 70.83H1179.05L1172.46 86.54H1159.86L1195.11 2.53998ZM1219.22 60L1201.35 17.54L1183.6 60H1219.22Z" fill="#DEDFDE"/>
<path d="M1245.05 24.61C1245.05 7.69997 1256.05 0.73999 1280.79 0.73999C1302.37 0.73999 1315.45 8.17998 1315.45 29.28H1304.29C1304.29 14.05 1292.9 12.13 1279.95 12.13C1262.56 12.13 1257.16 16.33 1257.16 24.13C1257.16 32.4 1265.92 35.4 1281.87 37.92C1304.29 41.64 1316.41 47.15 1316.41 64.06C1316.41 81.21 1305.01 88.29 1279.71 88.29C1257.64 88.29 1244.09 80.85 1244.09 59.75H1255.24C1255.24 75.34 1267.36 77.26 1280.79 77.26C1296.5 77.26 1304.17 73.42 1304.17 64.78C1304.17 52.43 1288.34 52.19 1277.67 50.03C1258.43 46 1245.05 42 1245.05 24.61Z" fill="#DEDFDE"/>
<path d="M4.27008 125H15.9101V209H4.27008V125Z" fill="#DEDFDE"/>
<path d="M27.9001 125H39.5301L87.6201 189.76V125H99.2501V209H87.6201L39.5301 144.12V209H27.9001V125Z" fill="#DEDFDE"/>
<path d="M135.23 135.82H107.29V125H174.8V135.8H146.86V209H135.23V135.82Z" fill="#DEDFDE"/>
<path d="M220.26 123.22C248.92 123.22 262.71 138.22 262.71 167C262.71 195.78 248.92 210.77 220.26 210.77C191.6 210.77 177.92 195.77 177.92 167C177.92 138.23 191.71 123.22 220.26 123.22ZM220.26 199.74C240.64 199.74 250.48 188.59 250.48 167C250.48 145.41 240.64 134.26 220.26 134.26C199.51 134.26 190.15 145.41 190.15 167C190.15 188.59 199.87 199.74 220.26 199.74Z" fill="#DEDFDE"/>
<path d="M0.320068 240.37H37.8501C62.0801 240.37 72.0301 249.13 72.0301 265.92C72.0301 281.63 63.7601 290.26 44.2101 291.46L70.5901 324.32H56.2001L30.0501 291.58H11.9501V324.32H0.320068V240.37ZM37.9701 280.79C54.5201 280.79 59.9701 275.79 59.9701 265.92C59.9701 256.05 54.5701 251.17 37.9701 251.17H11.9701V280.79H37.9701Z" fill="#DEDFDE"/>
<path d="M81.6201 240.37H146.38V251.17H93.2601V277H141.59V287.79H93.2601V313.58H147.58V324.37H81.5801L81.6201 240.37Z" fill="#DEDFDE"/>
<path d="M183.2 240.37H195.79L230.93 324.37H218.34L211.74 308.66H167.13L160.53 324.37H147.94L183.2 240.37ZM207.3 297.82L189.44 255.36L171.69 297.82H207.3Z" fill="#DEDFDE"/>
<path d="M239.05 240.37H250.68V313.53H303.45V324.32H239.05V240.37Z" fill="#DEDFDE"/>
<path d="M311.88 240.37H323.51V324.37H311.88V240.37Z" fill="#DEDFDE"/>
<path d="M359.48 251.17H331.54V240.37H399.05V251.17H371.12V324.32H359.48V251.17Z" fill="#DEDFDE"/>
<path d="M407.05 240.37H418.69V324.37H407.05V240.37Z" fill="#DEDFDE"/>
<path d="M430.72 240.37H495.48V251.17H442.35V277H490.68V287.79H442.35V313.58H496.68V324.37H430.68L430.72 240.37Z" fill="#DEDFDE"/>
<path d="M503.99 262.44C503.99 245.53 514.99 238.57 539.73 238.57C561.32 238.57 574.39 246.01 574.39 267.12H563.23C563.23 251.88 551.84 249.97 538.89 249.97C521.5 249.97 516.1 254.16 516.1 261.97C516.1 270.24 524.86 273.24 540.81 275.76C563.23 279.48 575.35 284.99 575.35 301.9C575.35 319.05 563.95 326.13 538.65 326.13C516.58 326.13 503.03 318.69 503.03 297.59H514.18C514.18 313.18 526.3 315.1 539.73 315.1C555.44 315.1 563.11 311.26 563.11 302.62C563.11 290.27 547.28 290.03 536.61 287.87C517.42 283.79 503.99 279.83 503.99 262.44Z" fill="#DEDFDE"/>
<path d="M755.71 148.89C755.71 131.98 766.71 125.02 791.44 125.02C813.03 125.02 826.1 132.46 826.1 153.57H814.95C814.95 138.34 803.56 136.42 790.6 136.42C773.21 136.42 767.82 140.61 767.82 148.42C767.82 156.69 776.57 159.69 792.52 162.21C814.95 165.93 827.06 171.45 827.06 188.35C827.06 205.5 815.67 212.58 790.36 212.58C768.3 212.58 754.75 205.14 754.75 184.04H765.9C765.9 199.63 778.01 201.55 791.44 201.55C807.15 201.55 814.83 197.71 814.83 189.07C814.83 176.72 799 176.48 788.33 174.32C769.14 170.24 755.71 166.28 755.71 148.89Z" fill="#DEDFDE"/>
<path d="M860.64 137.62H832.7V126.82H900.22V137.62H872.22V210.77H860.59L860.64 137.62Z" fill="#DEDFDE"/>
<path d="M968.69 178.15V126.82H980.32V176.47C980.32 204.18 965.09 212.57 943.63 212.57C922.17 212.57 907.05 204.18 907.05 176.47V126.82H918.68V178.15C918.68 194.94 927.8 201.54 943.63 201.54C959.46 201.54 968.69 194.94 968.69 178.15Z" fill="#DEDFDE"/>
<path d="M991.11 126.82H1002.75L1050.84 191.58V126.82H1062.47V210.77H1050.84L1002.75 145.89V210.77H991.11V126.82Z" fill="#DEDFDE"/>
<path d="M1074.46 126.82H1086.05L1134.15 191.58V126.82H1145.78V210.77H1134.15L1086.05 145.89V210.77H1074.42L1074.46 126.82Z" fill="#DEDFDE"/>
<path d="M1157.81 126.82H1169.44V210.77H1157.81V126.82Z" fill="#DEDFDE"/>
<path d="M1181.43 126.82H1193.05L1241.14 191.58V126.82H1252.77V210.77H1241.14L1193.05 145.89V210.77H1181.41L1181.43 126.82Z" fill="#DEDFDE"/>
<path d="M1262.38 168.68C1262.38 139.17 1275.81 125.02 1303.64 125.02C1329.18 125.02 1343.81 133.66 1343.81 155.96H1332.66C1332.66 139.05 1317.43 136.06 1303.04 136.06C1282.29 136.06 1274.61 145.89 1274.61 168.56C1274.61 191.7 1285.05 201.56 1303.04 201.56C1316.11 201.56 1324.26 190.4 1330.26 178.29H1304.05V168H1344.46V210.81H1333.31V189.06C1326.11 201.9 1315.8 212.57 1300.93 212.57C1276.41 212.57 1262.38 198.18 1262.38 168.68Z" fill="#DEDFDE"/>
<path d="M723.75 207.59H293.22C284.638 207.579 276.411 204.166 270.343 198.097C264.274 192.029 260.861 183.802 260.85 175.22V154.85C260.861 146.268 264.274 138.041 270.343 131.973C276.411 125.904 284.638 122.491 293.22 122.48H723.75C732.332 122.491 740.559 125.904 746.627 131.973C752.696 138.041 756.109 146.268 756.12 154.85V175.22C756.109 183.802 752.696 192.029 746.627 198.097C740.559 204.166 732.332 207.579 723.75 207.59ZM293.22 133.22C287.487 133.228 281.991 135.51 277.938 139.565C273.885 143.62 271.605 149.117 271.6 154.85V175.22C271.605 180.953 273.885 186.45 277.938 190.505C281.991 194.56 287.487 196.842 293.22 196.85H723.75C729.484 196.842 734.981 194.561 739.036 190.506C743.091 186.451 745.372 180.954 745.38 175.22V154.85C745.372 149.116 743.091 143.619 739.036 139.564C734.981 135.509 729.484 133.228 723.75 133.22H293.22Z" fill="#DEDFDE"/>
</svg>
