<svg width="1319" height="236" viewBox="0 0 1319 236" fill="none" xmlns="http://www.w3.org/2000/svg">
<path d="M305.925 81.8285L280.49 48.233H290.733L312.349 76.7935L305.925 81.8285ZM303.929 109V76.7935H312.349V109H303.929ZM310.353 81.8285L303.929 76.7935L325.544 48.233H335.788L310.353 81.8285ZM337.266 78.6165C337.266 68.1414 339.783 60.2417 344.818 54.9174C349.853 49.593 357.55 46.9308 367.91 46.9308C378.327 46.9308 386.053 49.593 391.088 54.9174C396.123 60.2417 398.64 68.1414 398.64 78.6165C398.64 89.0916 396.123 96.9913 391.088 102.316C386.053 107.64 378.327 110.302 367.91 110.302C357.55 110.302 349.853 107.64 344.818 102.316C339.783 96.9913 337.266 89.0916 337.266 78.6165ZM346.12 78.6165C346.12 86.4873 347.885 92.4193 351.416 96.4125C355.004 100.348 360.502 102.316 367.91 102.316C375.375 102.316 380.873 100.348 384.403 96.4125C387.992 92.4193 389.786 86.4873 389.786 78.6165C389.786 70.7457 387.992 64.8426 384.403 60.9073C380.873 56.914 375.375 54.9174 367.91 54.9174C360.444 54.9174 354.946 56.914 351.416 60.9073C347.885 64.9005 346.12 70.8036 346.12 78.6165ZM431.159 102.316C434.053 102.316 436.6 101.997 438.799 101.361C441.056 100.724 442.966 99.7403 444.528 98.4092C446.091 97.0202 447.277 95.2551 448.087 93.1138C448.898 90.9725 449.303 88.3971 449.303 85.3877V48.233H457.723V84.1723C457.723 89.2073 457.058 93.4031 455.727 96.7598C454.396 100.059 452.573 102.721 450.258 104.746C447.943 106.772 445.136 108.19 441.837 109C438.596 109.868 435.037 110.302 431.159 110.302C427.282 110.302 423.723 109.868 420.482 109C417.241 108.19 414.434 106.772 412.061 104.746C409.746 102.721 407.923 100.059 406.592 96.7598C405.319 93.4031 404.682 89.2073 404.682 84.1723V48.233H413.103V85.3877C413.103 88.3971 413.508 90.9725 414.318 93.1138C415.129 95.2551 416.286 97.0202 417.791 98.4092C419.353 99.7403 421.263 100.724 423.52 101.361C425.777 101.997 428.324 102.316 431.159 102.316ZM465.572 109V48.233H473.992V109H465.572ZM493.872 85.3009H465.572V77.488H492.83C495.839 77.488 498.357 77.2565 500.382 76.7935C502.408 76.3305 504.028 75.665 505.244 74.7969C506.459 73.8709 507.327 72.7424 507.848 71.4113C508.427 70.0802 508.716 68.5176 508.716 66.7235C508.716 64.9295 508.427 63.3669 507.848 62.0358C507.327 60.7047 506.459 59.6051 505.244 58.737C504.028 57.8689 502.408 57.2034 500.382 56.7404C498.357 56.2774 495.839 56.0459 492.83 56.0459H465.572V48.233H492.743C497.141 48.233 500.903 48.6381 504.028 49.4483C507.153 50.2007 509.7 51.3582 511.668 52.9207C513.693 54.4833 515.169 56.4221 516.095 58.737C517.021 60.9941 517.484 63.6562 517.484 66.7235C517.484 69.7908 517.021 72.4819 516.095 74.7969C515.227 77.1118 513.838 79.0506 511.928 80.6131C510.018 82.1757 507.559 83.3621 504.549 84.1723C501.598 84.9247 498.038 85.3009 493.872 85.3009ZM492.135 78.6165L516.442 109H506.025L481.718 78.6165H492.135ZM573.086 110.302C568.629 110.302 564.665 109.666 561.193 108.392C557.778 107.061 554.885 105.094 552.512 102.489C550.139 99.8271 548.316 96.4994 547.043 92.5061C545.827 88.5128 545.22 83.854 545.22 78.5297C545.22 67.7653 547.65 59.8077 552.512 54.6569C557.431 49.5062 564.954 46.9308 575.082 46.9308C579.712 46.9308 583.821 47.336 587.409 48.1462C591.055 48.9564 594.094 50.2586 596.524 52.0526C599.013 53.8467 600.894 56.1616 602.167 58.9974C603.498 61.8332 604.164 65.2767 604.164 69.3278H596.09C596.09 66.2605 595.454 63.8009 594.18 61.949C592.907 60.0392 591.258 58.5634 589.232 57.5217C587.207 56.4799 584.921 55.7855 582.374 55.4382C579.828 55.091 577.253 54.9174 574.648 54.9174C570.886 54.9174 567.703 55.3804 565.099 56.3063C562.495 57.1744 560.354 58.5923 558.675 60.56C557.055 62.4698 555.868 64.9005 555.116 67.8521C554.422 70.8036 554.074 74.3339 554.074 78.4429C554.074 82.6098 554.537 86.1979 555.463 89.2073C556.389 92.2167 557.72 94.7053 559.456 96.673C561.193 98.5828 563.334 100.001 565.88 100.927C568.427 101.853 571.349 102.316 574.648 102.316C577.484 102.316 580.002 101.679 582.201 100.406C584.458 99.0747 586.454 97.3675 588.191 95.284C589.985 93.1427 591.576 90.7699 592.965 88.1656C594.412 85.5034 595.685 82.8702 596.785 80.2659L601.733 81.6548C600.518 85.0115 599.042 88.3971 597.306 91.8116C595.569 95.2261 593.544 98.3224 591.229 101.1C588.914 103.82 586.252 106.048 583.242 107.785C580.233 109.463 576.847 110.302 573.086 110.302ZM596.524 109V82.957H604.598V109H596.524ZM575.343 85.4745V78.0088H604.598V85.4745H575.343ZM609.632 109L635.154 48.233H644.269L618.747 109H609.632ZM619.181 97.6279V89.815H659.982V97.6279H619.181ZM669.705 109H660.589L635.154 48.233H644.269L669.705 109ZM679.951 109V48.233H688.372V109H679.951ZM659.725 56.0459V48.233H708.599V56.0459H659.725ZM714.387 109V48.233H722.808V109H714.387ZM716.731 82.523V74.7101H757.792V82.523H716.731ZM716.731 56.0459V48.233H761.265V56.0459H716.731ZM716.731 109V101.187H762.133V109H716.731ZM812.053 48.233L791.826 109H782.711L802.938 48.233H812.053ZM762.397 48.233H771.512L791.826 109H782.711L762.397 48.233ZM852.68 48.233L832.366 109H823.251L843.565 48.233H852.68ZM802.938 48.233H812.053L832.366 109H823.251L802.938 48.233ZM842.086 109L867.608 48.233H876.723L851.201 109H842.086ZM851.635 97.6279V89.815H892.436V97.6279H851.635ZM902.159 109H893.044L867.608 48.233H876.723L902.159 109ZM918.767 81.8285L893.331 48.233H903.575L925.19 76.7935L918.767 81.8285ZM916.77 109V76.7935H925.19V109H916.77ZM923.194 81.8285L916.77 76.7935L938.386 48.233H948.629L923.194 81.8285ZM992.857 109V48.233H1001.28V109H992.857ZM972.631 56.0459V48.233H1021.5V56.0459H972.631ZM1023.78 78.6165C1023.78 68.1414 1026.29 60.2417 1031.33 54.9174C1036.36 49.593 1044.06 46.9308 1054.42 46.9308C1064.84 46.9308 1072.56 49.593 1077.6 54.9174C1082.63 60.2417 1085.15 68.1414 1085.15 78.6165C1085.15 89.0916 1082.63 96.9913 1077.6 102.316C1072.56 107.64 1064.84 110.302 1054.42 110.302C1044.06 110.302 1036.36 107.64 1031.33 102.316C1026.29 96.9913 1023.78 89.0916 1023.78 78.6165ZM1032.63 78.6165C1032.63 86.4873 1034.4 92.4193 1037.93 96.4125C1041.51 100.348 1047.01 102.316 1054.42 102.316C1061.89 102.316 1067.38 100.348 1070.91 96.4125C1074.5 92.4193 1076.3 86.4873 1076.3 78.6165C1076.3 70.7457 1074.5 64.8426 1070.91 60.9073C1067.38 56.914 1061.89 54.9174 1054.42 54.9174C1046.95 54.9174 1041.46 56.914 1037.93 60.9073C1034.4 64.9005 1032.63 70.8036 1032.63 78.6165Z" fill="white"/>
<path d="M4.45036 205.55V144.783H12.8709V205.55H4.45036ZM21.575 205.55V144.783H29.9956V205.55H21.575ZM64.8064 205.55V144.783H73.2269V205.55H64.8064ZM23.9189 150.425L29.9956 144.783L69.2337 197.65L64.8064 205.55L23.9189 150.425ZM81.9351 205.55V144.783H90.3556V205.55H81.9351ZM125.166 205.55V144.783H133.587V205.55H125.166ZM84.2789 150.425L90.3556 144.783L129.594 197.65L125.166 205.55L84.2789 150.425ZM140.559 175.166C140.559 164.691 143.076 156.792 148.111 151.467C153.146 146.143 160.844 143.481 171.203 143.481C181.62 143.481 189.346 146.143 194.381 151.467C199.416 156.792 201.934 164.691 201.934 175.166C201.934 185.641 199.416 193.541 194.381 198.865C189.346 204.19 181.62 206.852 171.203 206.852C160.844 206.852 153.146 204.19 148.111 198.865C143.076 193.541 140.559 185.641 140.559 175.166ZM149.414 175.166C149.414 183.037 151.179 188.969 154.709 192.962C158.297 196.898 163.795 198.865 171.203 198.865C178.669 198.865 184.167 196.898 187.697 192.962C191.285 188.969 193.079 183.037 193.079 175.166C193.079 167.296 191.285 161.392 187.697 157.457C184.167 153.464 178.669 151.467 171.203 151.467C163.737 151.467 158.239 153.464 154.709 157.457C151.179 161.45 149.414 167.353 149.414 175.166ZM261.711 144.783L236.797 205.55H227.682L252.596 144.783H261.711ZM202.767 144.783H211.882L236.797 205.55H227.682L202.767 144.783ZM251.089 205.55L276.611 144.783H285.726L260.204 205.55H251.089ZM260.638 194.178V186.365H301.439V194.178H260.638ZM311.162 205.55H302.047L276.611 144.783H285.726L311.162 205.55ZM321.409 205.55V144.783H329.829V205.55H321.409ZM301.182 152.596V144.783H350.056V152.596H301.182ZM355.844 205.55V144.783H364.265V205.55H355.844ZM425.836 144.783L400.922 205.55H391.807L416.721 144.783H425.836ZM366.892 144.783H376.007L400.922 205.55H391.807L366.892 144.783ZM428.412 205.55V144.783H436.833V205.55H428.412ZM430.756 179.073V171.26H471.817V179.073H430.756ZM430.756 152.596V144.783H475.289V152.596H430.756ZM430.756 205.55V197.737H476.158V205.55H430.756ZM505.049 205.55V144.783H513.47V205.55H505.049ZM529.356 205.55H505.049V197.737H530.224C533.349 197.737 536.185 197.274 538.731 196.348C541.278 195.364 543.419 193.946 545.155 192.094C546.949 190.184 548.338 187.812 549.322 184.976C550.306 182.14 550.798 178.841 550.798 175.079C550.798 171.376 550.306 168.135 549.322 165.357C548.338 162.521 546.949 160.177 545.155 158.325C543.419 156.415 541.278 154.997 538.731 154.071C536.185 153.088 533.349 152.596 530.224 152.596H505.049V144.783H529.356C534.101 144.783 538.355 145.419 542.117 146.693C545.879 147.966 549.033 149.876 551.579 152.422C554.183 154.969 556.151 158.152 557.482 161.971C558.871 165.733 559.566 170.131 559.566 175.166C559.566 180.201 558.871 184.629 557.482 188.448C556.151 192.21 554.183 195.364 551.579 197.911C549.033 200.457 545.879 202.367 542.117 203.64C538.355 204.913 534.101 205.55 529.356 205.55ZM566.511 205.55V144.783H574.932V205.55H566.511ZM609.766 206.852C605.309 206.852 601.345 206.215 597.873 204.942C594.458 203.611 591.564 201.643 589.192 199.039C586.819 196.377 584.996 193.049 583.723 189.056C582.507 185.063 581.9 180.404 581.9 175.079C581.9 164.315 584.33 156.357 589.192 151.207C594.111 146.056 601.634 143.481 611.762 143.481C616.392 143.481 620.501 143.886 624.089 144.696C627.735 145.506 630.774 146.808 633.204 148.602C635.693 150.397 637.574 152.711 638.847 155.547C640.178 158.383 640.844 161.827 640.844 165.878H632.77C632.77 162.81 632.134 160.351 630.86 158.499C629.587 156.589 627.938 155.113 625.912 154.071C623.887 153.03 621.601 152.335 619.054 151.988C616.508 151.641 613.933 151.467 611.328 151.467C607.566 151.467 604.383 151.93 601.779 152.856C599.175 153.724 597.034 155.142 595.355 157.11C593.735 159.02 592.548 161.45 591.796 164.402C591.102 167.353 590.754 170.884 590.754 174.993C590.754 179.16 591.217 182.748 592.143 185.757C593.069 188.767 594.4 191.255 596.136 193.223C597.873 195.133 600.014 196.551 602.56 197.476C605.107 198.402 608.029 198.865 611.328 198.865C614.164 198.865 616.682 198.229 618.881 196.956C621.138 195.625 623.134 193.917 624.871 191.834C626.665 189.693 628.256 187.32 629.645 184.715C631.092 182.053 632.365 179.42 633.465 176.816L638.413 178.205C637.198 181.561 635.722 184.947 633.986 188.361C632.249 191.776 630.224 194.872 627.909 197.65C625.594 200.37 622.932 202.598 619.922 204.334C616.913 206.013 613.527 206.852 609.766 206.852ZM633.204 205.55V179.507H641.278V205.55H633.204ZM612.023 182.024V174.559H641.278V182.024H612.023ZM649.082 205.55V144.783H657.503V205.55H649.082ZM683.569 205.55V144.783H691.99V205.55H683.569ZM663.342 152.596V144.783H712.216V152.596H663.342ZM703.705 205.55L729.227 144.783H738.342L712.82 205.55H703.705ZM713.254 194.178V186.365H754.055V194.178H713.254ZM763.777 205.55H754.662L729.227 144.783H738.342L763.777 205.55ZM769.718 205.55V144.783H778.138V205.55H769.718ZM772.062 205.55V197.737H816.335V205.55H772.062ZM875.208 206.852C864.386 206.852 856.342 204.248 851.075 199.039C845.866 193.83 843.262 185.844 843.262 175.079C843.262 164.315 845.693 156.357 850.554 151.207C855.473 146.056 862.997 143.481 873.125 143.481C877.755 143.481 881.864 143.886 885.452 144.696C889.098 145.506 892.136 146.808 894.567 148.602C897.055 150.397 898.936 152.711 900.209 155.547C901.541 158.383 902.206 161.827 902.206 165.878H894.133C894.133 162.81 893.496 160.351 892.223 158.499C890.95 156.589 889.3 155.113 887.275 154.071C885.249 153.03 882.963 152.335 880.417 151.988C877.87 151.641 875.295 151.467 872.691 151.467C868.929 151.467 865.746 151.93 863.142 152.856C860.537 153.724 858.396 155.142 856.718 157.11C855.097 159.02 853.911 161.45 853.158 164.402C852.464 167.353 852.117 170.913 852.117 175.079C852.117 183.355 854.056 189.403 857.933 193.223C861.811 196.985 867.743 198.865 875.729 198.865C877.986 198.865 880.214 198.721 882.413 198.431C884.671 198.084 886.696 197.448 888.49 196.522C890.284 195.538 891.731 194.178 892.831 192.441C893.93 190.647 894.48 188.246 894.48 185.236H902.553C902.553 189.287 901.888 192.702 900.557 195.48C899.284 198.2 897.461 200.399 895.088 202.077C892.715 203.756 889.821 204.971 886.407 205.723C883.05 206.476 879.317 206.852 875.208 206.852ZM908.665 205.55V144.783H917.085V205.55H908.665ZM936.965 181.851H908.665V174.038H935.923C938.932 174.038 941.45 173.806 943.475 173.343C945.501 172.88 947.121 172.215 948.337 171.347C949.552 170.421 950.42 169.292 950.941 167.961C951.52 166.63 951.809 165.067 951.809 163.273C951.809 161.479 951.52 159.917 950.941 158.586C950.42 157.255 949.552 156.155 948.337 155.287C947.121 154.419 945.501 153.753 943.475 153.29C941.45 152.827 938.932 152.596 935.923 152.596H908.665V144.783H935.836C940.235 144.783 943.996 145.188 947.121 145.998C950.247 146.75 952.793 147.908 954.761 149.471C956.786 151.033 958.262 152.972 959.188 155.287C960.114 157.544 960.577 160.206 960.577 163.273C960.577 166.341 960.114 169.032 959.188 171.347C958.32 173.662 956.931 175.6 955.021 177.163C953.111 178.726 950.652 179.912 947.642 180.722C944.691 181.474 941.132 181.851 936.965 181.851ZM935.229 175.166L959.535 205.55H949.118L924.811 175.166H935.229ZM967.499 205.55V144.783H975.919V205.55H967.499ZM969.843 179.073V171.26H1010.9V179.073H969.843ZM969.843 152.596V144.783H1014.38V152.596H969.843ZM969.843 205.55V197.737H1015.24V205.55H969.843ZM1015.51 205.55L1041.03 144.783H1050.15L1024.62 205.55H1015.51ZM1025.06 194.178V186.365H1065.86V194.178H1025.06ZM1075.58 205.55H1066.47L1041.03 144.783H1050.15L1075.58 205.55ZM1085.83 205.55V144.783H1094.25V205.55H1085.83ZM1065.6 152.596V144.783H1114.48V152.596H1065.6ZM1120.26 205.55V144.783H1128.68V205.55H1120.26ZM1135.65 175.166C1135.65 164.691 1138.17 156.792 1143.2 151.467C1148.24 146.143 1155.94 143.481 1166.3 143.481C1176.71 143.481 1184.44 146.143 1189.47 151.467C1194.51 156.792 1197.03 164.691 1197.03 175.166C1197.03 185.641 1194.51 193.541 1189.47 198.865C1184.44 204.19 1176.71 206.852 1166.3 206.852C1155.94 206.852 1148.24 204.19 1143.2 198.865C1138.17 193.541 1135.65 185.641 1135.65 175.166ZM1144.51 175.166C1144.51 183.037 1146.27 188.969 1149.8 192.962C1153.39 196.898 1158.89 198.865 1166.3 198.865C1173.76 198.865 1179.26 196.898 1182.79 192.962C1186.38 188.969 1188.17 183.037 1188.17 175.166C1188.17 167.296 1186.38 161.392 1182.79 157.457C1179.26 153.464 1173.76 151.467 1166.3 151.467C1158.83 151.467 1153.33 153.464 1149.8 157.457C1146.27 161.45 1144.51 167.353 1144.51 175.166ZM1203.94 205.55V144.783H1212.36V205.55H1203.94ZM1247.17 205.55V144.783H1255.59V205.55H1247.17ZM1206.28 150.425L1212.36 144.783L1251.6 197.65L1247.17 205.55L1206.28 150.425ZM1286.87 179.16C1283.4 178.407 1280.21 177.626 1277.32 176.816C1274.43 176.005 1271.94 174.935 1269.85 173.604C1267.77 172.215 1266.15 170.508 1264.99 168.482C1263.83 166.456 1263.26 163.881 1263.26 160.756C1263.26 154.621 1265.34 150.223 1269.51 147.561C1273.67 144.841 1280.21 143.481 1289.13 143.481C1293 143.481 1296.5 143.857 1299.63 144.609C1302.75 145.304 1305.39 146.461 1307.53 148.082C1309.67 149.702 1311.32 151.843 1312.48 154.506C1313.63 157.11 1314.21 160.322 1314.21 164.141H1306.14C1306.14 161.364 1305.65 159.164 1304.66 157.544C1303.74 155.866 1302.46 154.621 1300.84 153.811C1299.22 152.943 1297.34 152.393 1295.2 152.162C1293.12 151.872 1290.89 151.728 1288.52 151.728C1285.39 151.728 1282.76 151.93 1280.62 152.335C1278.53 152.683 1276.86 153.232 1275.58 153.985C1274.31 154.737 1273.38 155.663 1272.8 156.763C1272.28 157.804 1272.02 159.02 1272.02 160.409C1272.02 161.913 1272.4 163.187 1273.15 164.228C1273.96 165.27 1275.12 166.196 1276.62 167.006C1278.13 167.759 1279.98 168.395 1282.18 168.916C1284.44 169.437 1287.01 169.929 1289.91 170.392C1293.96 171.086 1297.55 171.896 1300.67 172.822C1303.8 173.691 1306.4 174.848 1308.48 176.295C1310.63 177.684 1312.22 179.449 1313.26 181.59C1314.36 183.674 1314.91 186.249 1314.91 189.316C1314.91 195.509 1312.77 199.994 1308.48 202.772C1304.2 205.492 1297.49 206.852 1288.34 206.852C1284.35 206.852 1280.76 206.476 1277.58 205.723C1274.4 205.029 1271.68 203.871 1269.42 202.251C1267.22 200.631 1265.51 198.518 1264.3 195.914C1263.14 193.252 1262.56 190.011 1262.56 186.191H1270.63C1270.63 189.027 1271.13 191.284 1272.11 192.962C1273.15 194.641 1274.51 195.914 1276.19 196.782C1277.93 197.65 1279.89 198.229 1282.09 198.518C1284.35 198.75 1286.69 198.865 1289.13 198.865C1294.85 198.865 1299.11 198.142 1301.89 196.695C1304.66 195.248 1306.05 192.962 1306.05 189.837C1306.05 187.58 1305.42 185.844 1304.14 184.629C1302.87 183.355 1301.28 182.4 1299.37 181.764C1297.46 181.069 1295.38 180.549 1293.12 180.201C1290.92 179.854 1288.84 179.507 1286.87 179.16Z" fill="#A4A4A4"/>
</svg>
