<svg width="317" height="89" viewBox="0 0 317 89" fill="none" xmlns="http://www.w3.org/2000/svg">
<path d="M2.53772 25V2.29613H5.68383V25H2.53772ZM3.41344 15.1076V12.1885H18.7548V15.1076H3.41344ZM3.41344 5.2152V2.29613H20.0521V5.2152H3.41344ZM3.41344 25V22.0809H20.3765V25H3.41344ZM34.2598 13.6481L43.4062 25H39.4168L32.2813 16.2104L25.1134 25H21.124L30.2704 13.6481L21.124 2.29613H25.1134L32.2813 11.0858L39.4168 2.29613H43.4062L34.2598 13.6481ZM45.0125 25V2.29613H48.1586V25H45.0125ZM55.1643 17.4429H45.0125V14.5238H55.1968C56.3212 14.5238 57.2618 14.4265 58.0185 14.2319C58.7753 14.0373 59.3808 13.7454 59.8349 13.3562C60.2889 12.967 60.6133 12.4804 60.8079 11.8966C61.0241 11.3128 61.1322 10.6317 61.1322 9.85328C61.1322 9.07486 61.0241 8.39374 60.8079 7.80993C60.6133 7.22612 60.2889 6.75042 59.8349 6.38283C59.3808 5.99362 58.7753 5.70171 58.0185 5.50711C57.2618 5.3125 56.3212 5.2152 55.1968 5.2152H45.0125V2.29613H55.1643C56.8077 2.29613 58.2132 2.4583 59.3808 2.78264C60.5484 3.08536 61.4998 3.56106 62.235 4.20975C62.9918 4.8368 63.5432 5.62603 63.8891 6.57743C64.2351 7.50721 64.4081 8.59916 64.4081 9.85328C64.4081 11.1074 64.2351 12.2102 63.8891 13.1616C63.5432 14.0913 63.0026 14.8806 62.2674 15.5292C61.5322 16.1563 60.5808 16.632 59.4132 16.9563C58.2456 17.2807 56.8293 17.4429 55.1643 17.4429ZM66.9942 25V2.29613H70.1403V25H66.9942ZM67.8699 25V22.0809H84.4113V25H67.8699ZM85.2231 13.6481C85.2231 9.73435 86.1637 6.78285 88.0449 4.79356C89.9261 2.80427 92.8019 1.80962 96.6723 1.80962C100.564 1.80962 103.451 2.80427 105.332 4.79356C107.213 6.78285 108.154 9.73435 108.154 13.6481C108.154 17.5618 107.213 20.5133 105.332 22.5026C103.451 24.4919 100.564 25.4865 96.6723 25.4865C92.8019 25.4865 89.9261 24.4919 88.0449 22.5026C86.1637 20.5133 85.2231 17.5618 85.2231 13.6481ZM88.5314 13.6481C88.5314 16.5888 89.1909 18.8051 90.5099 20.2971C91.8505 21.7674 93.9046 22.5026 96.6723 22.5026C99.4617 22.5026 101.516 21.7674 102.835 20.2971C104.175 18.8051 104.846 16.5888 104.846 13.6481C104.846 10.7074 104.175 8.50186 102.835 7.03151C101.516 5.53954 99.4617 4.79356 96.6723 4.79356C93.883 4.79356 91.8289 5.53954 90.5099 7.03151C89.1909 8.52348 88.5314 10.729 88.5314 13.6481ZM110.736 25V2.29613H113.882V25H110.736ZM121.309 16.1455H110.736V13.2264H120.92C122.045 13.2264 122.985 13.1399 123.742 12.967C124.499 12.794 125.104 12.5453 125.558 12.221C126.012 11.875 126.337 11.4534 126.531 10.956C126.747 10.4587 126.856 9.8749 126.856 9.2046C126.856 8.53429 126.747 7.95048 126.531 7.45316C126.337 6.95583 126.012 6.545 125.558 6.22066C125.104 5.89632 124.499 5.64766 123.742 5.47467C122.985 5.30169 122.045 5.2152 120.92 5.2152H110.736V2.29613H120.888C122.531 2.29613 123.937 2.44749 125.104 2.75021C126.272 3.03131 127.223 3.46376 127.958 4.04757C128.715 4.63139 129.267 5.35575 129.612 6.22066C129.958 7.06395 130.131 8.05859 130.131 9.2046C130.131 10.3506 129.958 11.3561 129.612 12.221C129.288 13.0859 128.769 13.8102 128.056 14.3941C127.342 14.9779 126.423 15.4211 125.299 15.7238C124.196 16.0049 122.866 16.1455 121.309 16.1455ZM120.661 13.6481L129.742 25H125.85L116.769 13.6481H120.661ZM132.718 25V2.29613H135.864V25H132.718ZM133.593 15.1076V12.1885H148.935V15.1076H133.593ZM133.593 5.2152V2.29613H150.232V5.2152H133.593ZM133.593 25V22.0809H150.556V25H133.593ZM160.702 13.6481C160.702 9.73435 161.643 6.78285 163.524 4.79356C165.405 2.80427 168.281 1.80962 172.151 1.80962C176.043 1.80962 178.93 2.80427 180.811 4.79356C182.692 6.78285 183.633 9.73435 183.633 13.6481C183.633 17.5618 182.692 20.5133 180.811 22.5026C178.93 24.4919 176.043 25.4865 172.151 25.4865C168.281 25.4865 165.405 24.4919 163.524 22.5026C161.643 20.5133 160.702 17.5618 160.702 13.6481ZM164.01 13.6481C164.01 16.5888 164.67 18.8051 165.989 20.2971C167.329 21.7674 169.384 22.5026 172.151 22.5026C174.941 22.5026 176.995 21.7674 178.314 20.2971C179.654 18.8051 180.325 16.5888 180.325 13.6481C180.325 10.7074 179.654 8.50186 178.314 7.03151C176.995 5.53954 174.941 4.79356 172.151 4.79356C169.362 4.79356 167.308 5.53954 165.989 7.03151C164.67 8.52348 164.01 10.729 164.01 13.6481ZM195.783 22.5026C196.864 22.5026 197.815 22.3836 198.637 22.1458C199.48 21.9079 200.194 21.5404 200.778 21.043C201.362 20.5241 201.805 19.8646 202.108 19.0646C202.41 18.2645 202.562 17.3023 202.562 16.1779V2.29613H205.708V15.7238C205.708 17.605 205.459 19.1727 204.962 20.4268C204.464 21.6593 203.783 22.6539 202.918 23.4107C202.053 24.1675 201.005 24.6973 199.772 25C198.561 25.3243 197.232 25.4865 195.783 25.4865C194.334 25.4865 193.004 25.3243 191.793 25C190.583 24.6973 189.534 24.1675 188.647 23.4107C187.782 22.6539 187.101 21.6593 186.604 20.4268C186.128 19.1727 185.89 17.605 185.89 15.7238V2.29613H189.037V16.1779C189.037 17.3023 189.188 18.2645 189.491 19.0646C189.793 19.8646 190.226 20.5241 190.788 21.043C191.372 21.5404 192.085 21.9079 192.929 22.1458C193.772 22.3836 194.723 22.5026 195.783 22.5026ZM208.64 25V2.29613H211.786V25H208.64ZM219.213 16.1455H208.64V13.2264H218.824C219.949 13.2264 220.889 13.1399 221.646 12.967C222.403 12.794 223.008 12.5453 223.462 12.221C223.916 11.875 224.241 11.4534 224.435 10.956C224.652 10.4587 224.76 9.8749 224.76 9.2046C224.76 8.53429 224.652 7.95048 224.435 7.45316C224.241 6.95583 223.916 6.545 223.462 6.22066C223.008 5.89632 222.403 5.64766 221.646 5.47467C220.889 5.30169 219.949 5.2152 218.824 5.2152H208.64V2.29613H218.792C220.435 2.29613 221.841 2.44749 223.008 2.75021C224.176 3.03131 225.127 3.46376 225.862 4.04757C226.619 4.63139 227.171 5.35575 227.517 6.22066C227.863 7.06395 228.036 8.05859 228.036 9.2046C228.036 10.3506 227.863 11.3561 227.517 12.221C227.192 13.0859 226.673 13.8102 225.96 14.3941C225.246 14.9779 224.327 15.4211 223.203 15.7238C222.1 16.0049 220.77 16.1455 219.213 16.1455ZM218.565 13.6481L227.646 25H223.754L214.673 13.6481H218.565Z" fill="#DEDFDE"/>
<path d="M2.53772 61.0732V38.3693H5.68383V61.0732H2.53772ZM11.6193 61.0732H2.53772V58.1541H11.9436C13.1112 58.1541 14.1707 57.9811 15.1221 57.6351C16.0735 57.2676 16.8736 56.7378 17.5223 56.0459C18.1926 55.3323 18.7115 54.4458 19.0791 53.3863C19.4467 52.3268 19.6305 51.0943 19.6305 49.6888C19.6305 48.3049 19.4467 47.0941 19.0791 46.0562C18.7115 44.9967 18.1926 44.1209 17.5223 43.429C16.8736 42.7155 16.0735 42.1857 15.1221 41.8397C14.1707 41.4722 13.1112 41.2884 11.9436 41.2884H2.53772V38.3693H11.6193C13.3923 38.3693 14.9816 38.6071 16.3871 39.0828C17.7926 39.5585 18.971 40.2721 19.9224 41.2235C20.8954 42.1749 21.6306 43.3641 22.1279 44.7912C22.6469 46.1967 22.9063 47.84 22.9063 49.7212C22.9063 51.6024 22.6469 53.2565 22.1279 54.6836C21.6306 56.0891 20.8954 57.2676 19.9224 58.219C18.971 59.1704 17.7926 59.8839 16.3871 60.3596C14.9816 60.8353 13.3923 61.0732 11.6193 61.0732ZM25.5013 61.0732V38.3693H28.6474V61.0732H25.5013ZM41.6621 61.5597C39.9971 61.5597 38.516 61.3218 37.2186 60.8461C35.9429 60.3488 34.8617 59.6136 33.9752 58.6406C33.0887 57.6459 32.4076 56.4026 31.9319 54.9107C31.4778 53.4187 31.2508 51.6781 31.2508 49.6888C31.2508 45.667 32.1589 42.6938 33.9752 40.7694C35.8131 38.845 38.6241 37.8828 42.4081 37.8828C44.1379 37.8828 45.6731 38.0341 47.0137 38.3369C48.376 38.6396 49.5111 39.1261 50.4193 39.7964C51.3491 40.4667 52.0518 41.3316 52.5275 42.3911C53.0248 43.4506 53.2735 44.7372 53.2735 46.2508H50.2571C50.2571 45.1048 50.0193 44.1858 49.5436 43.4939C49.0679 42.7803 48.4516 42.2289 47.6948 41.8397C46.938 41.4505 46.0839 41.1911 45.1325 41.0613C44.1811 40.9316 43.2189 40.8667 42.2459 40.8667C40.8404 40.8667 39.6512 41.0397 38.6782 41.3857C37.7051 41.71 36.9051 42.2398 36.278 42.9749C35.6726 43.6885 35.2293 44.5966 34.9482 45.6994C34.6888 46.8022 34.559 48.1211 34.559 49.6564C34.559 51.2132 34.732 52.5538 35.078 53.6782C35.4239 54.8026 35.9213 55.7323 36.5699 56.4675C37.2186 57.1811 38.0187 57.7108 38.9701 58.0568C39.9215 58.4027 41.0134 58.5757 42.2459 58.5757C43.3054 58.5757 44.246 58.3379 45.0677 57.8622C45.911 57.3649 46.6569 56.727 47.3056 55.9486C47.9759 55.1485 48.5706 54.262 49.0895 53.289C49.6301 52.2943 50.1058 51.3105 50.5166 50.3375L52.3653 50.8564C51.9113 52.1105 51.3599 53.3755 50.7112 54.6512C50.0625 55.9269 49.3057 57.0838 48.4408 58.1216C47.5759 59.1379 46.5813 59.9704 45.4569 60.6191C44.3325 61.2461 43.0676 61.5597 41.6621 61.5597ZM50.4193 61.0732V51.3429H53.4357V61.0732H50.4193ZM42.5054 52.2835V49.4942H53.4357V52.2835H42.5054ZM56.3517 61.0732V38.3693H59.4978V61.0732H56.3517ZM69.2367 61.0732V38.3693H72.3828V61.0732H69.2367ZM61.6795 41.2884V38.3693H79.9399V41.2884H61.6795ZM76.7599 61.0732L86.2955 38.3693H89.7011L80.1654 61.0732H76.7599ZM80.3276 56.8243V53.9052H95.5716V56.8243H80.3276ZM99.2043 61.0732H95.7987L86.2955 38.3693H89.7011L99.2043 61.0732ZM101.424 61.0732V38.3693H104.57V61.0732H101.424ZM102.299 61.0732V58.1541H118.841V61.0732H102.299ZM137.983 51.2132C136.686 50.9321 135.496 50.6402 134.415 50.3375C133.334 50.0348 132.404 49.6347 131.626 49.1374C130.847 48.6185 130.242 47.9806 129.81 47.2238C129.377 46.467 129.161 45.5048 129.161 44.3372C129.161 42.0452 129.939 40.4018 131.496 39.4072C133.053 38.3909 135.496 37.8828 138.826 37.8828C140.275 37.8828 141.583 38.0233 142.751 38.3044C143.918 38.5639 144.902 38.9964 145.702 39.6018C146.502 40.2072 147.119 41.0073 147.551 42.0019C147.984 42.9749 148.2 44.175 148.2 45.6021H145.183C145.183 44.5642 145 43.7425 144.632 43.1371C144.286 42.51 143.81 42.0452 143.205 41.7424C142.599 41.4181 141.897 41.2127 141.097 41.1262C140.318 41.0181 139.486 40.964 138.599 40.964C137.432 40.964 136.448 41.0397 135.648 41.1911C134.869 41.3208 134.242 41.5262 133.767 41.8073C133.291 42.0884 132.945 42.4344 132.729 42.8452C132.534 43.2344 132.437 43.6885 132.437 44.2074C132.437 44.7696 132.577 45.2453 132.858 45.6345C133.161 46.0237 133.594 46.3697 134.156 46.6724C134.718 46.9535 135.41 47.1914 136.232 47.386C137.075 47.5806 138.037 47.7644 139.118 47.9373C140.632 48.1968 141.972 48.4995 143.14 48.8455C144.308 49.1698 145.281 49.6023 146.059 50.1429C146.859 50.6618 147.454 51.3213 147.843 52.1213C148.254 52.8998 148.459 53.862 148.459 55.008C148.459 57.3216 147.659 58.9974 146.059 60.0353C144.459 61.0515 141.951 61.5597 138.534 61.5597C137.042 61.5597 135.702 61.4191 134.513 61.138C133.323 60.8785 132.307 60.4461 131.464 59.8407C130.642 59.2352 130.004 58.446 129.55 57.473C129.118 56.4783 128.901 55.2674 128.901 53.8404H131.918C131.918 54.8999 132.102 55.7431 132.469 56.3702C132.858 56.9973 133.367 57.473 133.994 57.7973C134.642 58.1216 135.377 58.3379 136.199 58.446C137.042 58.5325 137.918 58.5757 138.826 58.5757C140.967 58.5757 142.556 58.3054 143.594 57.7649C144.632 57.2243 145.151 56.3702 145.151 55.2026C145.151 54.3593 144.913 53.7106 144.437 53.2565C143.962 52.7808 143.367 52.4241 142.654 52.1862C141.94 51.9267 141.162 51.7321 140.318 51.6024C139.497 51.4727 138.718 51.3429 137.983 51.2132ZM151.057 61.0732V38.3693H154.203V61.0732H151.057ZM167.922 61.0732V38.3693H171.069V61.0732H167.922ZM152.127 51.1808V48.2617H169.317V51.1808H152.127ZM173.657 49.7212C173.657 45.8075 174.597 42.856 176.478 40.8667C178.36 38.8774 181.235 37.8828 185.106 37.8828C188.998 37.8828 191.885 38.8774 193.766 40.8667C195.647 42.856 196.588 45.8075 196.588 49.7212C196.588 53.6349 195.647 56.5864 193.766 58.5757C191.885 60.565 188.998 61.5597 185.106 61.5597C181.235 61.5597 178.36 60.565 176.478 58.5757C174.597 56.5864 173.657 53.6349 173.657 49.7212ZM176.965 49.7212C176.965 52.6619 177.624 54.8782 178.943 56.3702C180.284 57.8406 182.338 58.5757 185.106 58.5757C187.895 58.5757 189.949 57.8406 191.268 56.3702C192.609 54.8782 193.279 52.6619 193.279 49.7212C193.279 46.7805 192.609 44.575 191.268 43.1047C189.949 41.6127 187.895 40.8667 185.106 40.8667C182.317 40.8667 180.262 41.6127 178.943 43.1047C177.624 44.5966 176.965 46.8022 176.965 49.7212ZM215.451 38.3693L207.894 61.0732H204.489L212.046 38.3693H215.451ZM196.899 38.3693H200.305L207.894 61.0732H204.489L196.899 38.3693ZM230.631 38.3693L223.041 61.0732H219.635L227.225 38.3693H230.631ZM212.046 38.3693H215.451L223.041 61.0732H219.635L212.046 38.3693ZM242.891 61.5597C238.847 61.5597 235.842 60.5866 233.874 58.6406C231.928 56.6945 230.955 53.7106 230.955 49.6888C230.955 45.667 231.863 42.6938 233.679 40.7694C235.517 38.845 238.328 37.8828 242.112 37.8828C243.842 37.8828 245.377 38.0341 246.718 38.3369C248.08 38.6396 249.215 39.1261 250.123 39.7964C251.053 40.4667 251.756 41.3316 252.232 42.3911C252.729 43.4506 252.978 44.7372 252.978 46.2508H249.961C249.961 45.1048 249.723 44.1858 249.248 43.4939C248.772 42.7803 248.156 42.2289 247.399 41.8397C246.642 41.4505 245.788 41.1911 244.837 41.0613C243.885 40.9316 242.923 40.8667 241.95 40.8667C240.545 40.8667 239.355 41.0397 238.382 41.3857C237.409 41.71 236.609 42.2398 235.982 42.9749C235.377 43.6885 234.933 44.5966 234.652 45.6994C234.393 46.8022 234.263 48.132 234.263 49.6888C234.263 52.7808 234.987 55.0404 236.436 56.4675C237.885 57.873 240.101 58.5757 243.085 58.5757C243.928 58.5757 244.761 58.5217 245.583 58.4136C246.426 58.2838 247.183 58.046 247.853 57.7C248.523 57.3324 249.064 56.8243 249.475 56.1756C249.886 55.5053 250.091 54.608 250.091 53.4836H253.107C253.107 54.9972 252.859 56.2729 252.361 57.3108C251.886 58.3271 251.205 59.1487 250.318 59.7758C249.431 60.4028 248.35 60.8569 247.075 61.138C245.82 61.4191 244.426 61.5597 242.891 61.5597ZM253.12 61.0732L262.656 38.3693H266.061L256.526 61.0732H253.12ZM256.688 56.8243V53.9052H271.932V56.8243H256.688ZM275.565 61.0732H272.159L262.656 38.3693H266.061L275.565 61.0732ZM284.982 51.2132C283.684 50.9321 282.495 50.6402 281.414 50.3375C280.333 50.0348 279.403 49.6347 278.625 49.1374C277.846 48.6185 277.241 47.9806 276.808 47.2238C276.376 46.467 276.16 45.5048 276.16 44.3372C276.16 42.0452 276.938 40.4018 278.495 39.4072C280.052 38.3909 282.495 37.8828 285.825 37.8828C287.274 37.8828 288.582 38.0233 289.749 38.3044C290.917 38.5639 291.901 38.9964 292.701 39.6018C293.501 40.2072 294.117 41.0073 294.55 42.0019C294.982 42.9749 295.198 44.175 295.198 45.6021H292.182C292.182 44.5642 291.998 43.7425 291.631 43.1371C291.285 42.51 290.809 42.0452 290.204 41.7424C289.598 41.4181 288.895 41.2127 288.095 41.1262C287.317 41.0181 286.484 40.964 285.598 40.964C284.43 40.964 283.446 41.0397 282.646 41.1911C281.868 41.3208 281.241 41.5262 280.765 41.8073C280.29 42.0884 279.944 42.4344 279.727 42.8452C279.533 43.2344 279.435 43.6885 279.435 44.2074C279.435 44.7696 279.576 45.2453 279.857 45.6345C280.16 46.0237 280.592 46.3697 281.154 46.6724C281.717 46.9535 282.409 47.1914 283.23 47.386C284.074 47.5806 285.036 47.7644 286.117 47.9373C287.63 48.1968 288.971 48.4995 290.139 48.8455C291.306 49.1698 292.279 49.6023 293.058 50.1429C293.858 50.6618 294.452 51.3213 294.842 52.1213C295.252 52.8998 295.458 53.862 295.458 55.008C295.458 57.3216 294.658 58.9974 293.058 60.0353C291.458 61.0515 288.949 61.5597 285.533 61.5597C284.041 61.5597 282.7 61.4191 281.511 61.138C280.322 60.8785 279.306 60.4461 278.462 59.8407C277.641 59.2352 277.003 58.446 276.549 57.473C276.116 56.4783 275.9 55.2674 275.9 53.8404H278.916C278.916 54.8999 279.1 55.7431 279.468 56.3702C279.857 56.9973 280.365 57.473 280.992 57.7973C281.641 58.1216 282.376 58.3379 283.198 58.446C284.041 58.5325 284.917 58.5757 285.825 58.5757C287.966 58.5757 289.555 58.3054 290.593 57.7649C291.631 57.2243 292.15 56.3702 292.15 55.2026C292.15 54.3593 291.912 53.7106 291.436 53.2565C290.96 52.7808 290.366 52.4241 289.652 52.1862C288.939 51.9267 288.16 51.7321 287.317 51.6024C286.495 51.4727 285.717 51.3429 284.982 51.2132ZM298.055 61.0732V38.3693H301.201V61.0732H298.055ZM298.931 51.1808V48.2617H314.272V51.1808H298.931ZM298.931 41.2884V38.3693H315.57V41.2884H298.931ZM298.931 61.0732V58.1541H315.894V61.0732H298.931Z" fill="#DEDFDE"/>
</svg>
